<?xml version="1.0" encoding="UTF-8"?>
<svg xmlns="http://www.w3.org/2000/svg" xmlns:xlink="http://www.w3.org/1999/xlink" width="612pt" height="792pt" viewBox="0 0 612 792" version="1.1">
<g id="surface1">
<path style=" stroke:none;fill-rule:nonzero;fill:rgb(100%,100%,100%);fill-opacity:1;" d="M 223.539063 360.421875 C 219.382813 360.421875 216 363.820313 216 367.992188 L 216 424.003906 C 216 428.183594 219.382813 431.578125 223.539063 431.578125 L 239.933594 431.578125 C 244.085938 431.578125 247.460938 428.179688 247.460938 423.996094 L 247.472656 367.992188 C 247.472656 363.820313 244.09375 360.421875 239.949219 360.421875 L 223.539063 360.421875 "/>
<path style=" stroke:none;fill-rule:nonzero;fill:rgb(100%,100%,100%);fill-opacity:1;" d="M 240.164063 362.398438 L 223.75 362.398438 C 220.6875 362.398438 218.1875 364.910156 218.1875 367.992188 L 218.1875 424.007813 C 218.1875 427.078125 220.6875 429.601563 223.75 429.601563 L 240.148438 429.601563 C 243.222656 429.601563 245.699219 427.109375 245.699219 423.996094 L 245.699219 367.992188 C 245.699219 364.910156 243.222656 362.398438 240.164063 362.398438 "/>
<path style=" stroke:none;fill-rule:nonzero;fill:rgb(0%,40.79895%,69.799805%);fill-opacity:1;" d="M 239.128906 421.464844 C 238.542969 419.023438 236.609375 417.53125 237.59375 416.746094 C 237.363281 415.921875 236.863281 414.910156 236.886719 414.921875 C 233.886719 413.179688 231.296875 410.355469 230.867188 409.941406 C 230.351563 409.367188 229.453125 408.78125 229.28125 408.3125 C 228.550781 407.644531 224.996094 402.578125 224.199219 400.722656 L 222.746094 400.515625 C 222.09375 397.824219 219.925781 395.554688 219.863281 392.863281 C 219.832031 391.832031 220.320313 389.648438 220.492188 389.21875 C 220.667969 388.777344 221.507813 388.058594 221.507813 388.058594 L 221.507813 387.324219 C 218.371094 387.429688 219.273438 387.089844 218.734375 385.859375 C 218.34375 385.011719 218.613281 384.835938 218.773438 384.234375 C 219.175781 382.503906 220.582031 379.8125 221.152344 378.589844 C 221.339844 377.972656 221.945313 376.5 221.945313 376.5 C 224.277344 371.699219 225.152344 372.042969 227.921875 371.792969 L 228.066406 371.578125 C 230.851563 371.449219 230.398438 371.230469 230.785156 368.558594 C 230.382813 368.722656 230.261719 367.707031 230.261719 367.707031 C 230.035156 366.167969 230.671875 366.464844 230.984375 366.425781 C 231.039063 363.910156 231.296875 363.101563 233.128906 362.398438 L 223.75 362.398438 C 220.6875 362.398438 218.1875 364.910156 218.1875 367.992188 L 218.1875 424.007813 C 218.1875 427.078125 220.6875 429.601563 223.75 429.601563 L 240.164063 429.601563 C 238.289063 428.578125 239.394531 426.628906 239.449219 422.925781 C 238.5625 422.128906 239.160156 421.796875 239.128906 421.464844 "/>
<path style=" stroke:none;fill-rule:nonzero;fill:rgb(92.89856%,8.599854%,30.999756%);fill-opacity:1;" d="M 236.117188 373.863281 C 236.609375 374.167969 236.859375 374.40625 237.371094 374.722656 C 238.707031 375.585938 240.355469 377.089844 240.148438 382.289063 C 240.519531 383.429688 240.695313 385.65625 241.042969 386.363281 C 241.734375 387.761719 242.203125 388.664063 242.398438 389.976563 C 242.398438 389.976563 242.601563 392.03125 242.859375 392.164063 C 244.257813 392.484375 243.84375 392.621094 244.046875 392.875 C 244.261719 393.144531 245.070313 393.132813 245.070313 393.886719 C 245.351563 394.257813 245.546875 394.648438 245.699219 395.054688 L 245.699219 367.992188 C 245.699219 364.90625 243.222656 362.398438 240.164063 362.398438 L 234.867188 362.398438 C 235.703125 362.710938 236.191406 363.078125 236.480469 363.648438 C 237.144531 363.703125 237.964844 365.253906 236.703125 367.527344 C 237.253906 367.921875 236.820313 368.472656 236.433594 369.132813 C 236.3125 369.335938 236.179688 369.710938 235.804688 369.691406 C 235.308594 370.710938 234.730469 371.710938 234.300781 371.757813 C 234.167969 371.921875 234.074219 372.367188 234.265625 372.578125 C 234.917969 372.855469 235.699219 373.269531 236.09375 373.640625 L 236.117188 373.863281 "/>
<path style=" stroke:none;fill-rule:nonzero;fill:rgb(92.89856%,8.599854%,30.999756%);fill-opacity:1;" d="M 241.105469 401.863281 C 238.363281 401.863281 236.144531 399.628906 236.144531 396.871094 C 236.144531 394.527344 237.757813 392.558594 239.933594 392.027344 C 239.363281 390.59375 238.15625 388.261719 237.808594 387.507813 C 237.457031 386.742188 236.65625 381.996094 236.480469 381.066406 C 236.441406 380.855469 234.34375 382.292969 234.324219 382.382813 C 234.214844 382.496094 232.769531 386.3125 232.707031 386.507813 L 232.652344 387.152344 C 232.652344 387.152344 233.382813 387.242188 233.785156 388.492188 C 234.199219 389.742188 235.441406 394.316406 235.441406 394.316406 L 235.074219 394.625 C 236.65625 399.902344 236.105469 402.171875 236.792969 403.703125 C 237.691406 405.882813 237.929688 405.609375 238.671875 407.4375 C 239.226563 408.769531 239.820313 414.011719 240.03125 414.257813 C 240.871094 415.335938 241.339844 416.171875 241.339844 416.785156 C 241.339844 417.402344 240.605469 419.199219 240.871094 420.25 C 241.035156 420.875 241.105469 422.261719 241.394531 422.507813 C 241.394531 422.507813 241.648438 423.035156 241.535156 423.28125 L 241.445313 423.566406 C 241.914063 425.230469 243.425781 428.046875 240.992188 429.515625 L 241.035156 429.515625 C 243.695313 429.117188 245.699219 426.8125 245.699219 424.007813 L 245.699219 398.714844 C 244.984375 400.566406 243.1875 401.863281 241.105469 401.863281 "/>
<path style=" stroke:none;fill-rule:nonzero;fill:rgb(100%,100%,100%);fill-opacity:1;" d="M 224.0625 417.550781 L 224.0625 422.488281 L 224.023438 422.488281 L 223.980469 422.152344 L 222.640625 417.550781 L 220.726563 417.550781 L 220.726563 425.910156 L 222.414063 425.910156 L 222.414063 420.738281 L 222.429688 420.738281 L 222.480469 421.035156 L 223.84375 425.910156 L 225.746094 425.910156 L 225.746094 417.550781 L 224.0625 417.550781 "/>
<path style=" stroke:none;fill-rule:nonzero;fill:rgb(100%,100%,100%);fill-opacity:1;" d="M 228.980469 424.496094 L 228.414063 424.496094 L 228.414063 422.226563 L 229.023438 422.226563 C 229.621094 422.226563 229.703125 422.773438 229.703125 423.347656 C 229.703125 424.183594 229.621094 424.496094 228.980469 424.496094 Z M 228.414063 418.96875 L 229.015625 418.96875 C 229.492188 418.96875 229.621094 419.296875 229.621094 419.882813 C 229.621094 420.40625 229.558594 420.855469 228.945313 420.855469 L 228.414063 420.855469 Z M 230.195313 421.507813 L 230.195313 421.492188 C 231.128906 421.164063 231.269531 420.394531 231.269531 419.523438 C 231.269531 418.085938 230.574219 417.550781 229.152344 417.550781 L 226.398438 417.550781 L 226.398438 425.914063 L 229.222656 425.914063 C 230.949219 425.914063 231.472656 424.835938 231.472656 423.445313 C 231.472656 422.371094 231.144531 421.671875 230.195313 421.507813 "/>
<path style=" stroke:none;fill-rule:nonzero;fill:rgb(100%,100%,100%);fill-opacity:1;" d="M 233.863281 422.769531 L 234.347656 419.011719 L 234.363281 418.8125 L 234.386719 418.8125 L 234.390625 419.011719 L 234.828125 422.769531 Z M 235.660156 417.550781 L 233.082031 417.550781 L 231.523438 425.914063 L 233.460938 425.914063 L 233.664063 424.078125 L 235.03125 424.078125 L 235.199219 425.914063 L 237.246094 425.914063 L 235.660156 417.550781 "/>
<path style=" stroke:none;fill-rule:evenodd;fill:rgb(0%,0%,0%);fill-opacity:1;" d="M 354.394531 429.601563 L 344.078125 429.601563 L 344.078125 362.316406 L 365.695313 362.316406 L 365.695313 370.78125 L 354.394531 370.78125 L 354.394531 391.550781 L 363.738281 391.550781 L 363.738281 400.484375 L 354.394531 400.484375 L 354.394531 429.601563 "/>
<path style=" stroke:none;fill-rule:evenodd;fill:rgb(0%,0%,0%);fill-opacity:1;" d="M 254.410156 429.601563 L 254.410156 362.316406 C 258.667969 362.316406 262.925781 362.316406 267.183594 362.316406 C 274.105469 362.316406 277.574219 365.359375 279.429688 370.742188 C 281.933594 378.015625 282.230469 388.246094 282.230469 395.957031 C 282.203125 403.441406 282.472656 415.753906 280.328125 421.9375 C 278.472656 427.320313 275.816406 429.601563 269.160156 429.601563 C 264.246094 429.601563 259.328125 429.601563 254.410156 429.601563 Z M 271.332031 395.957031 C 271.332031 391.445313 271.203125 386.902344 270.933594 382.398438 C 270.421875 373.910156 269.339844 370.269531 266.6875 370.269531 L 264.691406 370.269531 L 264.691406 421.277344 L 267.273438 421.277344 C 270.460938 421.277344 270.601563 419.128906 271.109375 410.644531 C 271.332031 406.203125 271.320313 400.660156 271.332031 395.957031 "/>
<path style=" stroke:none;fill-rule:evenodd;fill:rgb(0%,0%,0%);fill-opacity:1;" d="M 323.859375 429.601563 L 314.429688 429.601563 L 322.894531 362.316406 L 332.960938 362.316406 L 342.320313 429.601563 L 331.71875 429.601563 L 330.714844 418.945313 L 324.910156 418.945313 Z M 329.894531 410.277344 L 327.878906 388.882813 L 325.765625 410.277344 Z M 329.894531 410.277344 "/>
<path style=" stroke:none;fill-rule:evenodd;fill:rgb(0%,0%,0%);fill-opacity:1;" d="M 396 370.929688 L 387.011719 370.929688 L 387.011719 429.601563 L 376.664063 429.601563 L 376.664063 370.929688 L 367.613281 370.929688 L 367.613281 362.316406 L 396 362.316406 L 396 370.929688 "/>
<path style=" stroke:none;fill-rule:evenodd;fill:rgb(0%,0%,0%);fill-opacity:1;" d="M 295.003906 390.621094 L 299.039063 390.621094 C 300.414063 390.621094 300.996094 388.535156 301.230469 385.511719 C 301.511719 381.878906 301.515625 377.203125 300.671875 373.6875 C 300.027344 370.996094 298.980469 369.722656 297.675781 369.722656 L 295.003906 369.722656 Z M 299.367188 362.316406 C 306.640625 362.316406 309.753906 366.632813 311.019531 371.617188 C 312.066406 375.746094 312.113281 383.886719 311.222656 387.90625 C 310.496094 391.183594 308.898438 393.902344 305.371094 395.195313 C 307.144531 396.144531 308.253906 397.773438 308.953125 399.726563 C 310.371094 403.648438 310.148438 408.289063 310.3125 412.433594 C 310.445313 415.882813 310.707031 419.394531 311.164063 422.347656 C 311.527344 424.679688 312.273438 428.394531 314.074219 429.601563 L 302.425781 429.601563 C 300.734375 425.535156 300.265625 420.695313 300.265625 414.675781 L 300.222656 405.390625 C 300.175781 401.445313 299.371094 398.242188 297.21875 398.242188 L 295.003906 398.242188 L 295.003906 429.601563 L 284.71875 429.601563 L 284.71875 362.316406 C 289.601563 362.316406 294.484375 362.316406 299.367188 362.316406 "/>
</g>
</svg>
