<?xml version="1.0" encoding="UTF-8" standalone="no"?>
<!-- Created with Inkscape (http://www.inkscape.org/) -->

<svg
   xmlns:dc="http://purl.org/dc/elements/1.1/"
   xmlns:cc="http://creativecommons.org/ns#"
   xmlns:rdf="http://www.w3.org/1999/02/22-rdf-syntax-ns#"
   xmlns:svg="http://www.w3.org/2000/svg"
   xmlns="http://www.w3.org/2000/svg"
   xmlns:sodipodi="http://sodipodi.sourceforge.net/DTD/sodipodi-0.dtd"
   xmlns:inkscape="http://www.inkscape.org/namespaces/inkscape"
   width="1000"
   height="1023.4518"
   viewBox="0 0 264.58331 270.78827"
   version="1.1"
   id="svg2121"
   inkscape:version="0.92.3 (2405546, 2018-03-11)"
   sodipodi:docname="drawing2.svg">
  <defs
     id="defs2115" />
  <sodipodi:namedview
     id="base"
     pagecolor="#ffffff"
     bordercolor="#666666"
     borderopacity="1.0"
     inkscape:pageopacity="0.0"
     inkscape:pageshadow="2"
     inkscape:zoom="0.35"
     inkscape:cx="910.42915"
     inkscape:cy="10.327867"
     inkscape:document-units="mm"
     inkscape:current-layer="layer1"
     showgrid="false"
     fit-margin-top="0"
     fit-margin-left="0"
     fit-margin-right="0"
     fit-margin-bottom="0"
     units="px" />
  <metadata
     id="metadata2118">
    <rdf:RDF>
      <cc:Work
         rdf:about="">
        <dc:format>image/svg+xml</dc:format>
        <dc:type
           rdf:resource="http://purl.org/dc/dcmitype/StillImage" />
        <dc:title></dc:title>
      </cc:Work>
    </rdf:RDF>
  </metadata>
  <g
     inkscape:label="Layer 1"
     inkscape:groupmode="layer"
     id="layer1"
     transform="translate(54.920094,290.82355)">
    <g
       transform="matrix(0.41252631,0,0,-0.41252631,-24.479481,-774.12165)"
       id="g1965">
      <g
         style="fill:#345fa9;fill-opacity:1;stroke:none"
         transform="matrix(7.9402443,0,0,7.9402443,244.95609,-1827.9716)"
         id="g815">
        <path
           inkscape:connector-curvature="0"
           id="path817"
           style="fill:#345fa9;fill-opacity:1;stroke:none;stroke-width:0.1;stroke-linecap:butt;stroke-linejoin:miter;stroke-miterlimit:4;stroke-dasharray:none;stroke-opacity:1"
           d="M 0,0 C 20.92,0 37.88,16.976 37.88,37.916 37.88,58.856 20.92,75.832 0,75.832 -20.92,75.832 -37.88,58.856 -37.88,37.916 -37.88,16.976 -20.92,0 0,0 Z" />
      </g>
      <g
         style="fill:#c6cdd3;fill-opacity:1"
         transform="matrix(7.6380694,0,0,7.6380694,244.95609,-1816.5143)"
         id="g811">
        <path
           inkscape:connector-curvature="0"
           id="path813"
           style="fill:#c6cdd3;fill-opacity:1;fill-rule:nonzero;stroke:none"
           d="M 0,0 C 20.92,0 37.88,16.976 37.88,37.916 37.88,58.856 20.92,75.832 0,75.832 -20.92,75.832 -37.88,58.856 -37.88,37.916 -37.88,16.976 -20.92,0 0,0" />
      </g>
      <g
         transform="matrix(7.9402443,0,0,7.9402443,244.50032,-1816.0215)"
         id="g819">
        <path
           inkscape:connector-curvature="0"
           id="path821"
           style="fill:none;stroke:#000000;stroke-width:0.62699997;stroke-linecap:butt;stroke-linejoin:miter;stroke-miterlimit:4;stroke-dasharray:none;stroke-opacity:1"
           d="M 0,0 C 20.166,0 36.514,16.364 36.514,36.548 36.514,56.733 20.166,73.097 0,73.097 -20.166,73.097 -36.514,56.733 -36.514,36.548 -36.514,16.364 -20.166,0 0,0 Z" />
      </g>
      <g
         style="fill:#000000;fill-opacity:1;stroke:#345fa9;stroke-opacity:1"
         transform="matrix(7.9402443,0,0,7.9402443,367.68845,-1261.1858)"
         id="g827">
        <path
           inkscape:connector-curvature="0"
           id="path829"
           style="fill:#000000;fill-opacity:1;stroke:#345fa9;stroke-width:0.86500001;stroke-linecap:butt;stroke-linejoin:miter;stroke-miterlimit:4;stroke-dasharray:none;stroke-opacity:1"
           d="M 0,0 C -0.85,1.505 -8.238,4.779 -15.213,4.779 -22.187,4.779 -29.575,1.505 -30.426,0 V -9.004 H 0.009 Z" />
      </g>
      <g
         style="fill:#000000;fill-opacity:1;stroke:#345fa9;stroke-opacity:1"
         transform="matrix(7.9402443,0,0,7.9402443,335.24144,-1194.2591)"
         id="g835">
        <path
           inkscape:connector-curvature="0"
           id="path837"
           style="fill:#000000;fill-opacity:1;stroke:#345fa9;stroke-width:0.86699998;stroke-linecap:butt;stroke-linejoin:miter;stroke-miterlimit:4;stroke-dasharray:none;stroke-opacity:1"
           d="m 0,0 c -3.894,1.841 -7.448,2.384 -11.268,2.424 -4.75,0.049 -9.173,-1.057 -11.267,-2.266 V -16.409 H 0.006 Z" />
      </g>
      <g
         transform="matrix(7.9402443,0,0,7.9402443,215.52002,-1195.7749)"
         id="g839">
        <path
           inkscape:connector-curvature="0"
           id="path841"
           style="fill:#000000;fill-opacity:1;fill-rule:nonzero;stroke:none"
           d="m 0,0 v -0.201 c -0.189,-0.084 -0.212,-0.207 -0.212,-0.358 v -7.784 c 0,-0.151 0.023,-0.262 0.212,-0.245 V -8.789 L -1.439,-8.98 v 0.201 c 0.136,0.036 0.174,0.113 0.174,0.231 0,0.217 -0.19,0.384 -2.19,4.791 v -5.144 c 0,-0.151 0.023,-0.262 0.213,-0.245 v -0.201 l -1.44,-0.383 v 0.201 c 0.19,0.084 0.212,0.207 0.212,0.358 v 7.736 c 0,0.151 -0.022,0.262 -0.212,0.245 v 0.201 c 0.192,0.072 1.653,0.451 1.826,0.486 v -0.201 c -0.174,-0.063 -0.212,-0.174 -0.212,-0.274 0,-0.184 1.31,-2.964 1.841,-4.112 v 4.389 c 0,0.201 -0.061,0.269 -0.159,0.26 v 0.2 C -1.243,-0.197 -0.18,-0.011 0,0" />
      </g>
      <g
         style="fill:#ffffff"
         transform="matrix(7.9402443,0,0,7.9402443,215.52002,-1195.7749)"
         id="g843">
        <path
           inkscape:connector-curvature="0"
           id="path845"
           style="fill:#ffffff;stroke:#ffffff;stroke-width:0.226;stroke-linecap:butt;stroke-linejoin:miter;stroke-miterlimit:4;stroke-dasharray:none;stroke-opacity:1"
           d="m 0,0 v -0.201 c -0.189,-0.084 -0.212,-0.207 -0.212,-0.358 v -7.784 c 0,-0.151 0.023,-0.262 0.212,-0.245 V -8.789 L -1.439,-8.98 v 0.201 c 0.136,0.036 0.174,0.113 0.174,0.231 0,0.217 -0.19,0.384 -2.19,4.791 v -5.144 c 0,-0.151 0.023,-0.262 0.213,-0.245 v -0.201 l -1.44,-0.383 v 0.201 c 0.19,0.084 0.212,0.207 0.212,0.358 v 7.736 c 0,0.151 -0.022,0.262 -0.212,0.245 v 0.201 c 0.192,0.072 1.653,0.451 1.826,0.486 v -0.201 c -0.174,-0.063 -0.212,-0.174 -0.212,-0.274 0,-0.184 1.31,-2.964 1.841,-4.112 v 4.389 c 0,0.201 -0.061,0.269 -0.159,0.26 v 0.2 C -1.243,-0.197 -0.18,-0.011 0,0 Z" />
      </g>
      <g
         transform="matrix(7.9402443,0,0,7.9402443,232.60504,-1196.5475)"
         id="g847">
        <path
           inkscape:connector-curvature="0"
           id="path849"
           style="fill:#000000;fill-opacity:1;fill-rule:nonzero;stroke:none"
           d="m 0,0 c 0,0.102 -0.023,0.182 -0.212,0.204 v 0.137 h 2.886 c 0.818,0 1.417,-0.931 1.417,-2.056 0,-0.681 -0.303,-2.055 -0.727,-2.191 v -0.023 c 0.507,-0.204 0.878,-1.09 0.878,-1.931 0,-0.908 -0.454,-2.634 -1.53,-2.634 h -2.924 v 0.136 C -0.023,-8.335 0,-8.256 0,-8.153 Z m 1.136,-3.338 h 1.031 c 0.651,0 0.818,1.021 0.818,1.476 0,0.454 -0.167,0.999 -0.818,0.999 H 1.136 Z m 0,-3.952 h 1.288 c 0.53,0 0.743,1.135 0.743,1.635 0,0.5 -0.213,1.158 -0.743,1.158 H 1.136 Z" />
      </g>
      <g
         style="fill:#ffffff"
         transform="matrix(7.9402443,0,0,7.9402443,232.60504,-1196.5475)"
         id="g851">
        <path
           inkscape:connector-curvature="0"
           id="path853"
           style="fill:#ffffff;stroke:#ffffff;stroke-width:0.226;stroke-linecap:butt;stroke-linejoin:miter;stroke-miterlimit:4;stroke-dasharray:none;stroke-opacity:1"
           d="m 0,0 c 0,0.102 -0.023,0.182 -0.212,0.204 v 0.137 h 2.886 c 0.818,0 1.417,-0.931 1.417,-2.056 0,-0.681 -0.303,-2.055 -0.727,-2.191 v -0.023 c 0.507,-0.204 0.878,-1.09 0.878,-1.931 0,-0.908 -0.454,-2.634 -1.53,-2.634 h -2.924 v 0.136 C -0.023,-8.335 0,-8.256 0,-8.153 Z m 1.136,-3.338 h 1.031 c 0.651,0 0.818,1.021 0.818,1.476 0,0.454 -0.167,0.999 -0.818,0.999 H 1.136 Z m 0,-3.952 h 1.288 c 0.53,0 0.743,1.135 0.743,1.635 0,0.5 -0.213,1.158 -0.743,1.158 H 1.136 Z" />
      </g>
      <g
         transform="matrix(7.9402443,0,0,7.9402443,289.04113,-1252.5881)"
         id="g855">
        <path
           inkscape:connector-curvature="0"
           id="path857"
           style="fill:#000000;fill-opacity:1;fill-rule:nonzero;stroke:none"
           d="m 0,0 c -0.197,-1.224 -0.242,-1.375 -0.242,-1.48 0,-0.104 0.03,-0.182 0.136,-0.209 l -0.024,-0.185 -1.349,0.223 v 0.209 c 0.106,0.026 0.152,0.084 0.197,0.351 0.068,0.384 1.38,7.512 1.38,7.616 0,0.122 -0.083,0.179 -0.151,0.214 V 6.948 L 1.924,6.442 V 6.232 C 1.841,6.236 1.788,6.215 1.788,6.04 1.788,5.901 2.72,0.844 3.189,-1.929 3.265,-2.367 3.311,-2.484 3.402,-2.507 v -0.209 l -1.493,0.382 v 0.209 c 0.106,-0.01 0.144,0.068 0.144,0.173 0,0.069 -0.227,1.322 -0.258,1.556 z M 0.189,1.412 1.599,1.051 0.864,5.073 Z" />
      </g>
      <g
         style="fill:#ffffff"
         transform="matrix(7.9402443,0,0,7.9402443,289.04113,-1252.5881)"
         id="g859">
        <path
           inkscape:connector-curvature="0"
           id="path861"
           style="fill:#ffffff;stroke:#ffffff;stroke-width:0.226;stroke-linecap:butt;stroke-linejoin:miter;stroke-miterlimit:4;stroke-dasharray:none;stroke-opacity:1"
           d="m 0,0 c -0.197,-1.224 -0.242,-1.375 -0.242,-1.48 0,-0.104 0.03,-0.182 0.136,-0.209 l -0.024,-0.185 -1.349,0.223 v 0.209 c 0.106,0.026 0.152,0.084 0.197,0.351 0.068,0.384 1.38,7.512 1.38,7.616 0,0.122 -0.083,0.179 -0.151,0.214 V 6.948 L 1.924,6.442 V 6.232 C 1.841,6.236 1.788,6.215 1.788,6.04 1.788,5.901 2.72,0.844 3.189,-1.929 3.265,-2.367 3.311,-2.484 3.402,-2.507 v -0.209 l -1.493,0.382 v 0.209 c 0.106,-0.01 0.144,0.068 0.144,0.173 0,0.069 -0.227,1.322 -0.258,1.556 z M 0.189,1.412 1.599,1.051 0.864,5.073 Z" />
      </g>
      <g
         style="fill:#c26d27;fill-opacity:1"
         transform="matrix(7.9402443,0,0,7.9402443,97.291371,-1694.7073)"
         id="g863">
        <path
           inkscape:connector-curvature="0"
           id="path865"
           style="fill:#c26d27;fill-opacity:1;fill-rule:nonzero;stroke:none"
           d="M 0,0 C 12.107,-10.669 30.26,-9.136 40.545,3.424 50.829,15.985 49.351,34.816 37.244,45.485 25.136,56.154 6.983,54.621 -3.301,42.061 -13.585,29.5 -12.107,10.669 0,0" />
      </g>
      <g
         transform="matrix(7.9402443,0,0,7.9402443,97.291371,-1694.7073)"
         id="g867">
        <path
           inkscape:connector-curvature="0"
           id="path869"
           style="fill:none;stroke:#000000;stroke-width:1.153;stroke-linecap:butt;stroke-linejoin:miter;stroke-miterlimit:4;stroke-dasharray:none;stroke-opacity:1"
           d="M 0,0 C 12.107,-10.669 30.26,-9.136 40.545,3.424 50.829,15.985 49.351,34.816 37.244,45.485 25.136,56.154 6.983,54.621 -3.301,42.061 -13.585,29.5 -12.107,10.669 0,0 Z" />
      </g>
      <g
         transform="matrix(7.9402443,0,0,7.9402443,96.520374,-1692.8358)"
         id="g871">
        <path
           inkscape:connector-curvature="0"
           id="path873"
           style="fill:none;stroke:#000000;stroke-width:1.153;stroke-linecap:butt;stroke-linejoin:miter;stroke-miterlimit:4;stroke-dasharray:none;stroke-opacity:1"
           d="M 0,0 C 12.107,-10.669 30.26,-9.136 40.545,3.424 50.829,15.985 49.351,34.816 37.244,45.485 25.136,56.154 6.983,54.621 -3.301,42.061 -13.585,29.5 -12.107,10.669 0,0 Z M 15.192,52.463 C 7.77,35.413 11.18,7.53 22.213,-6.712 M 0,0 C 7.971,-3.503 30.437,-7.314 44.68,10.338 M 4.059,48.301 C 2.053,45.091 -10.283,24.38 7.519,3.719 c 2.352,-2.73 5.734,-4.743 6.119,-6.72 0.351,-1.806 -0.552,-2.909 -1.455,-3.411 m 13.44,58.073 C 27.83,49.053 35.252,25.583 27.83,5.925 26.054,1.222 25.021,-0.494 25.423,-1.597 c 0.706,-1.943 3.309,-2.407 7.221,-1.605" />
      </g>
      <g
         transform="matrix(7.9402443,0,0,7.9402443,238.18545,-1366.7538)"
         id="g875">
        <path
           inkscape:connector-curvature="0"
           id="path877"
           style="fill:#000000;fill-opacity:1;fill-rule:nonzero;stroke:none"
           d="m 0,0 c -25.651,0 -34.74,-9.272 -39.09,-11.65 v -29.18 c 1.516,-1.16 3.071,-1.988 4.146,-2.409 2.988,2.517 6.548,4.906 11.03,6.63 5.497,2.216 15.151,4.498 24.187,4.539 9.503,0.042 17.693,-1.219 25.747,-4.689 4.483,-1.725 8.106,-4.164 11.093,-6.681 1.075,0.422 2.693,1.488 4.171,2.447 v 29.142 C 34.866,-7.367 27.481,0 0,0" />
      </g>
      <g
         transform="matrix(7.9402443,0,0,7.9402443,238.18545,-1366.7538)"
         id="g879">
        <path
           inkscape:connector-curvature="0"
           id="path881"
           style="fill:none;stroke:#000000;stroke-width:0.40099999;stroke-linecap:butt;stroke-linejoin:miter;stroke-miterlimit:4;stroke-dasharray:none;stroke-opacity:1"
           d="m 0,0 c -25.651,0 -34.74,-9.272 -39.09,-11.65 v -29.18 c 1.516,-1.16 3.071,-1.988 4.146,-2.409 2.988,2.517 6.548,4.906 11.03,6.63 5.497,2.216 15.151,4.498 24.187,4.539 9.503,0.042 17.693,-1.219 25.747,-4.689 4.483,-1.725 8.106,-4.164 11.093,-6.681 1.075,0.422 2.693,1.488 4.171,2.447 v 29.142 C 34.866,-7.367 27.481,0 0,0 Z" />
      </g>
      <g
         style="fill:#345fa9;fill-opacity:1"
         transform="matrix(7.9402443,0,0,7.9402443,246.99753,-1609.923)"
         id="g883">
        <path
           inkscape:connector-curvature="0"
           id="path885"
           style="fill:#345fa9;fill-opacity:1;fill-rule:nonzero;stroke:none"
           d="m 0,0 c 9.503,0.012 18.856,-1.944 24.86,-4.504 4.483,-1.725 8.269,-4.038 11.256,-6.555 1.05,0.254 2.203,1.119 2.642,1.431 V 25.293 C 30.995,32.116 16.571,37.061 0,37.061 c -19.425,0 -31.476,-5.873 -38.758,-11.717 V -9.554 c 0,0 1.241,-1.001 2.539,-1.411 3.221,2.552 6.932,4.959 11.283,6.536 C -17.452,-1.655 -8.901,-0.063 0,0" />
      </g>
      <g
         transform="matrix(7.9402443,0,0,7.9402443,246.99753,-1609.923)"
         id="g887">
        <path
           inkscape:connector-curvature="0"
           id="path889"
           style="fill:none;stroke:#000000;stroke-width:0.72899997;stroke-linecap:butt;stroke-linejoin:miter;stroke-miterlimit:4;stroke-dasharray:none;stroke-opacity:1"
           d="m 0,0 c 9.503,0.012 18.856,-1.944 24.86,-4.504 4.483,-1.725 8.269,-4.038 11.256,-6.555 1.05,0.254 2.203,1.119 2.642,1.431 V 25.293 C 30.995,32.116 16.571,37.061 0,37.061 c -19.425,0 -31.476,-5.873 -38.758,-11.717 V -9.554 c 0,0 1.241,-1.001 2.539,-1.411 3.221,2.552 6.932,4.959 11.283,6.536 C -17.452,-1.655 -8.901,-0.063 0,0 Z" />
      </g>
      <g
         transform="matrix(7.9402443,0,0,7.9402443,552.35868,-1688.0812)"
         id="g891">
        <path
           inkscape:connector-curvature="0"
           id="path893"
           style="fill:none;stroke:#000000;stroke-width:0.63999999;stroke-linecap:butt;stroke-linejoin:miter;stroke-miterlimit:4;stroke-dasharray:none;stroke-opacity:1"
           d="m 0,0 c -8.525,7.877 -23.3,12.307 -38.457,12.307 -15.006,0 -30.472,-4.581 -38.33,-11.99 m -0.428,31.774 c 8.036,6.483 19.581,12.269 38.657,12.269 16.466,0 31.002,-4.959 38.881,-12.391" />
      </g>
      <g
         style="fill:#ffffff"
         transform="matrix(7.9402443,0,0,7.9402443,-26.682045,-1636.7149)"
         id="g895">
        <path
           inkscape:connector-curvature="0"
           id="path897"
           style="fill:#ffffff;fill-opacity:1;fill-rule:nonzero;stroke:none"
           d="M 0,0 V 2.438 L 1.079,3.09 V 23.904 L 0,23.207 v 2.494 c 2.27,1.562 7.006,3.932 7.618,4.124 v -7.909 l -2.074,0.646 v 3.754 l -1.206,-0.571 0.034,-9.128 1.11,0.551 v 1.238 l 1.255,0.509 V 13.777 L 5.482,13.223 v 1.281 L 4.36,14.022 4.392,4.799 5.544,5.308 v 4.341 l 2.074,2.174 V 3.702 C 5.667,3.043 2.606,1.594 0,0" />
      </g>
      <g
         style="fill:#ffffff"
         transform="matrix(7.9402443,0,0,7.9402443,41.653286,-1604.31)"
         id="g899">
        <path
           inkscape:connector-curvature="0"
           id="path901"
           style="fill:#ffffff;fill-opacity:1;fill-rule:nonzero;stroke:none"
           d="M 0,0 -0.001,2.393 1.075,2.785 2.927,24.771 1.914,24.393 v 2.506 c 2.052,0.793 5.484,1.785 6.814,2.068 v -2.422 l -0.853,-0.26 2.183,-21.01 0.915,0.131 V 2.959 C 10.235,2.814 7.95,2.42 5.973,1.882 V 4.268 L 6.893,4.53 6.396,10.927 4.468,10.209 4.22,3.76 5.281,4.088 V 1.681 C 4.028,1.343 1.452,0.582 0,0 M 5.849,13.715 5.167,24.215 4.674,13.298 Z" />
      </g>
      <g
         style="fill:#ffffff"
         transform="matrix(7.9402443,0,0,7.9402443,166.79074,-1416.9353)"
         id="g903">
        <path
           inkscape:connector-curvature="0"
           id="path905"
           style="fill:#ffffff;fill-opacity:1;fill-rule:nonzero;stroke:none"
           d="m 0,0 c 0,0 -0.028,2.476 -0.036,3.148 -0.011,0.981 0,0.981 -0.658,0.921 C -1.466,3.998 -1.237,3.872 -1.229,3.151 -1.22,2.379 -1.208,1.706 -1.208,1.33 c 0,-6.719 5.037,-6.403 5.037,-12.925 l 0.039,-3.644 c 0.048,-4.195 -0.231,-4.157 -3.535,-4.65 -2.959,-0.441 -4.073,-0.864 -4.228,3.394 l -0.045,3.932 3.132,-1.334 c 0,0 0.014,-1.629 0.03,-2.302 0.02,-0.84 0.118,-0.82 0.805,-0.713 0.568,0.089 0.394,-0.008 0.384,0.849 -0.013,1.128 -0.034,2.992 -0.04,3.458 -0.066,5.821 -5.081,6.634 -5.14,11.76 l -0.035,3.048 c -0.05,4.426 -0.19,3.893 4.029,4.522 2.357,0.352 3.788,0.503 3.854,-3.266 v -4.748 z" />
      </g>
      <g
         style="fill:#ffffff"
         transform="matrix(7.9402443,0,0,7.9402443,288.92043,-1571.1134)"
         id="g907">
        <path
           inkscape:connector-curvature="0"
           id="path909"
           style="fill:#ffffff;fill-opacity:1;fill-rule:nonzero;stroke:none"
           d="M 0,0 V 2.541 L 1.222,2.458 V 23.764 L 0,23.91 v 2.46 c 2.623,-0.145 5.315,-0.493 7.495,-0.876 v -8.345 l -2.012,1.917 v 4.25 l -1.107,0.145 v -9.564 l 1.107,-0.169 v 1.246 L 6.761,14.792 V 9.383 L 5.483,9.641 v 1.387 l -1.107,0.17 V 2.104 L 5.483,1.961 v 4.202 l 2.012,0.94 V -0.884 C 5.639,-0.624 3.024,-0.097 0,0" />
      </g>
      <g
         style="fill:#ffffff"
         transform="matrix(7.9402443,0,0,7.9402443,396.11373,-1378.5696)"
         id="g911">
        <path
           inkscape:connector-curvature="0"
           id="path913"
           style="fill:#ffffff;fill-opacity:1;fill-rule:nonzero;stroke:none"
           d="M 0,0 C 3.215,-0.826 4.183,-2.426 4.195,-5.939 L 4.202,-9.26 c 0.006,-1.708 -0.888,-3.515 -2.789,-2.867 v -0.065 c 2.151,-0.626 2.495,-1.867 2.504,-4.477 l 0.016,-6.723 c 0.008,-2.224 0.341,-3.301 0.538,-4.253 l -3.197,0.959 c -0.239,0.901 -0.288,1.437 -0.294,3.017 l -0.018,7.296 c -0.005,1.418 -0.301,2.609 -1.509,2.87 v -10.395 l 0.736,-0.198 -0.057,-2.318 c -0.539,0.129 -3.496,0.89 -4.987,1.081 v 2.326 l 1.21,-0.167 v 21.521 l -1.21,0.251 v 2.494 c 0,0 3.939,-0.854 4.855,-1.092 m -0.581,-10.86 0.421,-0.089 c 0.556,-0.12 1.129,0.336 1.125,1.432 l -0.012,4.675 c -0.004,1.096 -0.579,1.348 -1.135,1.469 l -0.399,0.089 z" />
      </g>
      <g
         style="fill:#ffffff"
         transform="matrix(7.9402443,0,0,7.9402443,439.33328,-1600.7583)"
         id="g915">
        <path
           inkscape:connector-curvature="0"
           id="path917"
           style="fill:#ffffff;fill-opacity:1;fill-rule:nonzero;stroke:none"
           d="M 0,0 V 2.543 L 0.832,2.253 0.835,23.541 0,23.889 v 2.37 C 1.458,25.684 5.077,24.117 5.626,23.751 L 7.298,4.506 7.313,20.304 6.786,20.627 6.767,23.112 c 0.873,-0.519 1.78,-0.968 3.999,-2.56 l 0.027,-2.5 -0.882,0.625 0.043,-23.226 c -0.187,0.108 -3.263,1.861 -3.948,2.16 L 3.707,19.833 V -1.4 c 0,0 -3.206,1.282 -3.707,1.4" />
      </g>
      <g
         style="fill:#ffffff"
         transform="matrix(7.9402443,0,0,7.9402443,278.50998,-1361.3385)"
         id="g919">
        <path
           inkscape:connector-curvature="0"
           id="path921"
           style="fill:#ffffff;fill-opacity:1;fill-rule:nonzero;stroke:none"
           d="m 0,0 v -8.256 l -2.216,0.851 v 5.016 H -3.32 V -23.68 l 1.164,-0.018 v -2.558 c -0.69,0.064 -4.353,-0.024 -5.407,-0.052 v 2.61 h 1.16 v 21.309 h -1.081 l 0.006,-5.015 -2.209,-0.889 -0.02,8.265 C -8.989,0.128 -0.758,0.236 0,0" />
      </g>
      <g
         transform="matrix(7.9402443,0,0,7.9402443,-31.508125,-1435.4393)"
         id="g923">
        <path
           inkscape:connector-curvature="0"
           id="path925"
           style="fill:#000000;fill-opacity:1;fill-rule:nonzero;stroke:none"
           d="M 0,0 -0.544,-0.32 V -2.814 L 0,-2.494 Z" />
      </g>
      <g
         transform="matrix(7.9402443,0,0,7.9402443,-27.276769,-1458.25)"
         id="g927">
        <path
           inkscape:connector-curvature="0"
           id="path929"
           style="fill:#000000;fill-opacity:1;fill-rule:nonzero;stroke:none"
           d="M 0,0 0.544,0.297 V -18.975 L 0,-19.289 Z" />
      </g>
      <g
         transform="matrix(7.9402443,0,0,7.9402443,-31.508125,-1620.1508)"
         id="g931">
        <path
           inkscape:connector-curvature="0"
           id="path933"
           style="fill:#000000;fill-opacity:1;fill-rule:nonzero;stroke:none"
           d="M 0,0 0.005,-2.429 -0.539,-2.76 v 2.44 z" />
      </g>
      <g
         transform="matrix(7.9402443,0,0,7.9402443,24.665133,-1464.1607)"
         id="g935">
        <path
           inkscape:connector-curvature="0"
           id="path937"
           style="fill:#000000;fill-opacity:1;fill-rule:nonzero;stroke:none"
           d="m 0,0 -1.535,0.482 v -0.64 L 0,-0.637 Z" />
      </g>
      <g
         transform="matrix(7.9402443,0,0,7.9402443,12.864342,-1557.4808)"
         id="g939">
        <path
           inkscape:connector-curvature="0"
           id="path941"
           style="fill:#000000;fill-opacity:1;fill-rule:nonzero;stroke:none"
           d="M 0,0 1.932,1.998 V 2.894 L 0,0.863 Z" />
      </g>
      <g
         transform="matrix(7.9402443,0,0,7.9402443,52.024039,-1392.5056)"
         id="g943">
        <path
           inkscape:connector-curvature="0"
           id="path945"
           style="fill:#000000;fill-opacity:1;fill-rule:nonzero;stroke:none"
           d="m 0,0 -0.007,-2.448 -0.537,-0.214 v 2.505 z" />
      </g>
      <g
         transform="matrix(7.9402443,0,0,7.9402443,45.364556,-1579.137)"
         id="g947">
        <path
           inkscape:connector-curvature="0"
           id="path949"
           style="fill:#000000;fill-opacity:1;fill-rule:nonzero;stroke:none"
           d="M 0,0 1.804,20.657 1.26,20.447 -0.544,-0.167 Z" />
      </g>
      <g
         transform="matrix(7.9402443,0,0,7.9402443,88.119595,-1524.659)"
         id="g951">
        <path
           inkscape:connector-curvature="0"
           id="path953"
           style="fill:#000000;fill-opacity:1;fill-rule:nonzero;stroke:none"
           d="M 0,0 0.373,-5.11 -0.17,-5.225 -0.554,-0.168 Z" />
      </g>
      <g
         transform="matrix(7.9402443,0,0,7.9402443,130.68645,-1513.9849)"
         id="g955">
        <path
           inkscape:connector-curvature="0"
           id="path957"
           style="fill:#000000;fill-opacity:1;fill-rule:nonzero;stroke:none"
           d="m 0,0 0.055,-4.814 c 0.018,-0.192 0.142,-0.535 0.159,-0.615 l -0.531,-0.083 c 0,0 -0.106,0.174 -0.144,0.33 -0.1,0.416 -0.061,5.406 -0.061,5.406 z" />
      </g>
      <g
         transform="matrix(7.9402443,0,0,7.9402443,160.00024,-1507.1016)"
         id="g959">
        <path
           inkscape:connector-curvature="0"
           id="path961"
           style="fill:#000000;fill-opacity:1;fill-rule:nonzero;stroke:none"
           d="m 0,0 c -0.323,2.08 -1.246,2.995 -3.408,6.002 -0.346,0.482 -1.406,2.175 -1.447,3.023 -0.169,0.768 -0.315,5.166 -0.225,5.71 0.059,0.352 -0.125,1.721 0.988,2.463 -0.41,-0.448 -0.38,-1.168 -0.43,-2.383 -0.05,-1.216 0.041,-4.872 0.177,-5.662 C -4.174,8.161 -3.512,7.08 -3.01,6.226 -2.456,5.282 0.457,2.383 0.562,-0.217 0.583,-0.454 0.608,-1.221 0.597,-1.669 L 0.083,-1.461 C 0.113,-1.333 0.066,-0.346 0,0" />
      </g>
      <g
         transform="matrix(7.9402443,0,0,7.9402443,166.46916,-1427.4911)"
         id="g963">
        <path
           inkscape:connector-curvature="0"
           id="path965"
           style="fill:#000000;fill-opacity:1;fill-rule:nonzero;stroke:none"
           d="M 0,0 C -0.339,0.228 -0.304,0.854 -0.304,0.854 L -0.279,0.844 2.202,-0.175 2.21,-0.863 Z" />
      </g>
      <g
         transform="matrix(7.9402443,0,0,7.9402443,218.46347,-1430.4885)"
         id="g967">
        <path
           inkscape:connector-curvature="0"
           id="path969"
           style="fill:#000000;fill-opacity:1;fill-rule:nonzero;stroke:none"
           d="M 0,0 0.551,0.215 V -14.363 H 0 Z" />
      </g>
      <g
         transform="matrix(7.9402443,0,0,7.9402443,213.63421,-1549.7581)"
         id="g971">
        <path
           inkscape:connector-curvature="0"
           id="path973"
           style="fill:#000000;fill-opacity:1;fill-rule:nonzero;stroke:none"
           d="M 0,0 V -2.626 H -0.544 V 0.006 Z" />
      </g>
      <g
         transform="matrix(7.9402443,0,0,7.9402443,256.65922,-1429.3459)"
         id="g975">
        <path
           inkscape:connector-curvature="0"
           id="path977"
           style="fill:#000000;fill-opacity:1;fill-rule:nonzero;stroke:none"
           d="m 0,0 2.227,-0.8 v 0.656 L 0,0.656 Z" />
      </g>
      <g
         transform="matrix(7.9402443,0,0,7.9402443,289.20072,-1386.1303)"
         id="g979">
        <path
           inkscape:connector-curvature="0"
           id="path981"
           style="fill:#000000;fill-opacity:1;fill-rule:nonzero;stroke:none"
           d="m 0,0 0.592,-0.069 v -20.12 l -0.608,0.025 z" />
      </g>
      <g
         transform="matrix(7.9402443,0,0,7.9402443,284.12135,-1550.5013)"
         id="g983">
        <path
           inkscape:connector-curvature="0"
           id="path985"
           style="fill:#000000;fill-opacity:1;fill-rule:nonzero;stroke:none"
           d="m 0,0 v -2.559 l -0.592,0.032 v 2.543 z" />
      </g>
      <g
         transform="matrix(7.9402443,0,0,7.9402443,338.85663,-1432.1393)"
         id="g987">
        <path
           inkscape:connector-curvature="0"
           id="path989"
           style="fill:#000000;fill-opacity:1;fill-rule:nonzero;stroke:none"
           d="m 0,0 v -0.784 l -1.447,1.28 v 0.863 z" />
      </g>
      <g
         transform="matrix(7.9402443,0,0,7.9402443,328.18891,-1514.0524)"
         id="g991">
        <path
           inkscape:connector-curvature="0"
           id="path993"
           style="fill:#000000;fill-opacity:1;fill-rule:nonzero;stroke:none"
           d="M 0,0 1.567,0.736 V 0.096 L 0,-0.64 Z" />
      </g>
      <g
         transform="matrix(7.9402443,0,0,7.9402443,357.79808,-1396.1819)"
         id="g995">
        <path
           inkscape:connector-curvature="0"
           id="path997"
           style="fill:#000000;fill-opacity:1;fill-rule:nonzero;stroke:none"
           d="M 0,0 0.573,-0.123 V -20.299 L 0,-20.203 Z" />
      </g>
      <g
         transform="matrix(7.9402443,0,0,7.9402443,427.65,-1387.8661)"
         id="g999">
        <path
           inkscape:connector-curvature="0"
           id="path1001"
           style="fill:#000000;fill-opacity:1;fill-rule:nonzero;stroke:none"
           d="M 0,0 -0.003,-0.808 C 0.109,-0.909 0.496,-2.11 0.544,-2.544 v 2.337 z" />
      </g>
      <g
         transform="matrix(7.9402443,0,0,7.9402443,436.79319,-1415.8967)"
         id="g1003">
        <path
           inkscape:connector-curvature="0"
           id="path1005"
           style="fill:#000000;fill-opacity:1;fill-rule:nonzero;stroke:none"
           d="m 0,0 0.547,-0.208 v -19.983 l -0.55,0.184 z" />
      </g>
      <g
         transform="matrix(7.9402443,0,0,7.9402443,473.3469,-1531.3773)"
         id="g1007">
        <path
           inkscape:connector-curvature="0"
           id="path1009"
           style="fill:#000000;fill-opacity:1;fill-rule:nonzero;stroke:none"
           d="M 0,0 -0.032,-4.381 0.57,-10.564 1.114,-10.87 Z" />
      </g>
      <g
         style="fill:#000000"
         transform="translate(1.5,-1.5)"
         id="g1684">
        <g
           style="fill:#000000"
           transform="matrix(7.9402443,0,0,7.9402443,46.511127,-1683.2495)"
           id="g1646">
          <path
             inkscape:connector-curvature="0"
             id="path1644"
             style="fill:#000000;fill-opacity:1;fill-rule:nonzero;stroke:none"
             d="M 0,0 0.318,0.243 C 0.664,0.509 0.69,0.78 0.551,0.962 0.333,1.246 0.116,1.224 -0.19,0.989 l -2.077,-1.591 c -0.307,-0.235 -0.385,-0.438 -0.167,-0.722 0.195,-0.256 0.408,-0.228 0.675,-0.023 l 0.493,0.378 0.539,-0.704 -0.471,-0.361 c -0.578,-0.443 -1.31,-0.463 -1.849,0.24 -0.565,0.738 -0.355,1.439 0.224,1.883 l 2.111,1.617 C -0.133,2.149 0.599,2.169 1.164,1.431 1.703,0.728 1.453,-0.004 0.84,-0.473 L 0.539,-0.704 Z" />
        </g>
        <g
           style="fill:#000000"
           transform="matrix(7.9402443,0,0,7.9402443,75.13412,-1709.1808)"
           id="g1650">
          <path
             inkscape:connector-curvature="0"
             id="path1648"
             style="fill:#000000;fill-opacity:1;fill-rule:nonzero;stroke:none"
             d="m 0,0 c 0.476,0.553 1.188,0.724 1.893,0.117 0.706,-0.606 0.644,-1.336 0.168,-1.89 L 0.326,-3.79 c -0.476,-0.553 -1.189,-0.724 -1.894,-0.117 -0.705,0.606 -0.643,1.336 -0.167,1.889 z m -1.049,-2.58 c -0.252,-0.293 -0.286,-0.508 -0.015,-0.742 0.271,-0.233 0.479,-0.166 0.731,0.126 l 1.707,1.986 c 0.252,0.292 0.287,0.508 0.016,0.741 -0.272,0.234 -0.48,0.167 -0.731,-0.126 z" />
        </g>
        <g
           style="fill:#000000"
           transform="matrix(7.9402443,0,0,7.9402443,103.39424,-1766.4117)"
           id="g1654">
          <path
             inkscape:connector-curvature="0"
             id="path1652"
             style="fill:#000000;fill-opacity:1;fill-rule:nonzero;stroke:none"
             d="M 0,0 2.484,4.526 3.205,4.13 2.731,1.022 2.743,1.015 4.164,3.604 4.866,3.219 2.382,-1.307 1.705,-0.936 2.266,2.435 2.254,2.442 0.702,-0.385 Z" />
        </g>
        <g
           style="fill:#000000"
           transform="matrix(7.9402443,0,0,7.9402443,156.5121,-1791.1201)"
           id="g1658">
          <path
             inkscape:connector-curvature="0"
             id="path1656"
             style="fill:#000000;fill-opacity:1;fill-rule:nonzero;stroke:none"
             d="M 0,0 1.52,4.933 3.884,4.204 3.657,3.466 2.14,3.934 1.748,2.663 2.883,2.313 2.655,1.575 1.521,1.925 0.847,-0.261 Z" />
        </g>
        <g
           style="fill:#000000"
           transform="matrix(7.9402443,0,0,7.9402443,210.29216,-1803.8825)"
           id="g1662">
          <path
             inkscape:connector-curvature="0"
             id="path1660"
             style="fill:#000000;fill-opacity:1;fill-rule:nonzero;stroke:none"
             d="M 0,0 0.526,5.136 2.888,4.894 2.809,4.126 1.329,4.277 1.194,2.954 2.332,2.838 2.253,2.069 1.115,2.186 0.961,0.678 2.54,0.516 2.461,-0.252 Z" />
        </g>
        <g
           style="fill:#000000"
           transform="matrix(7.9402443,0,0,7.9402443,272.63579,-1805.3054)"
           id="g1666">
          <path
             inkscape:connector-curvature="0"
             id="path1664"
             style="fill:#000000;fill-opacity:1;fill-rule:nonzero;stroke:none"
             d="m 0,0 -0.883,-0.087 -0.504,5.141 1.239,0.121 C 0.842,5.272 1.388,4.902 1.496,3.805 1.577,2.979 1.289,2.613 1.003,2.449 L 1.979,0.194 1.082,0.106 0.247,2.173 C 0.134,2.148 -0.05,2.123 -0.207,2.107 Z m -0.278,2.834 0.313,0.03 C 0.513,2.911 0.673,3.106 0.613,3.719 0.553,4.331 0.358,4.492 -0.119,4.445 L -0.433,4.414 Z" />
        </g>
        <g
           style="fill:#000000"
           transform="matrix(7.9402443,0,0,7.9402443,323.40253,-1794.8155)"
           id="g1670">
          <path
             inkscape:connector-curvature="0"
             id="path1668"
             style="fill:#000000;fill-opacity:1;fill-rule:nonzero;stroke:none"
             d="M 0,0 -1.529,4.933 0.739,5.636 0.968,4.898 -0.453,4.457 -0.059,3.187 1.034,3.526 1.262,2.788 0.169,2.449 0.618,1 2.135,1.471 2.364,0.733 Z" />
        </g>
        <g
           style="fill:#000000"
           transform="matrix(7.9402443,0,0,7.9402443,375.17134,-1774.9816)"
           id="g1674">
          <path
             inkscape:connector-curvature="0"
             id="path1672"
             style="fill:#000000;fill-opacity:1;fill-rule:nonzero;stroke:none"
             d="M 0,0 -2.493,4.522 -1.773,4.919 0.599,2.854 0.612,2.86 -0.814,5.447 -0.113,5.834 2.38,1.312 1.703,0.939 -0.843,3.218 -0.856,3.211 0.701,0.387 Z" />
        </g>
        <g
           style="fill:#000000"
           transform="matrix(7.9402443,0,0,7.9402443,415.89844,-1713.3645)"
           id="g1678">
          <path
             inkscape:connector-curvature="0"
             id="path1676"
             style="fill:#000000;fill-opacity:1;fill-rule:nonzero;stroke:none"
             d="m 0,0 -0.262,0.303 c -0.285,0.33 -0.557,0.34 -0.731,0.191 -0.27,-0.234 -0.235,-0.449 0.017,-0.742 l 1.709,-1.98 c 0.253,-0.292 0.461,-0.358 0.731,-0.125 0.244,0.21 0.203,0.421 -0.016,0.675 L 1.042,-1.207 1.713,-0.628 2.1,-1.077 C 2.577,-1.629 2.64,-2.358 1.969,-2.937 1.265,-3.545 0.553,-3.376 0.076,-2.824 l -1.737,2.013 c -0.477,0.552 -0.54,1.282 0.164,1.889 0.671,0.579 1.416,0.372 1.92,-0.212 L 0.671,0.579 Z" />
        </g>
        <g
           style="fill:#000000"
           transform="matrix(7.9402443,0,0,7.9402443,463.08572,-1703.8235)"
           id="g1682">
          <path
             inkscape:connector-curvature="0"
             id="path1680"
             style="fill:#000000;fill-opacity:1;fill-rule:nonzero;stroke:none"
             d="M 0,0 -4.084,3.156 -2.633,5.034 -2.022,4.562 -2.931,3.385 -1.879,2.572 -1.18,3.477 -0.569,3.005 -1.268,2.1 -0.069,1.173 0.901,2.429 1.512,1.957 Z" />
        </g>
      </g>
      <g
         id="g1642">
        <g
           id="g1011"
           transform="matrix(7.9402443,0,0,7.9402443,46.511127,-1683.2495)"
           style="fill:#ffffff">
          <path
             d="M 0,0 0.318,0.243 C 0.664,0.509 0.69,0.78 0.551,0.962 0.333,1.246 0.116,1.224 -0.19,0.989 l -2.077,-1.591 c -0.307,-0.235 -0.385,-0.438 -0.167,-0.722 0.195,-0.256 0.408,-0.228 0.675,-0.023 l 0.493,0.378 0.539,-0.704 -0.471,-0.361 c -0.578,-0.443 -1.31,-0.463 -1.849,0.24 -0.565,0.738 -0.355,1.439 0.224,1.883 l 2.111,1.617 C -0.133,2.149 0.599,2.169 1.164,1.431 1.703,0.728 1.453,-0.004 0.84,-0.473 L 0.539,-0.704 Z"
             style="fill:#ffffff;fill-opacity:1;fill-rule:nonzero;stroke:none"
             id="path1013"
             inkscape:connector-curvature="0" />
        </g>
        <g
           id="g1015"
           transform="matrix(7.9402443,0,0,7.9402443,75.13412,-1709.1808)"
           style="fill:#ffffff">
          <path
             d="m 0,0 c 0.476,0.553 1.188,0.724 1.893,0.117 0.706,-0.606 0.644,-1.336 0.168,-1.89 L 0.326,-3.79 c -0.476,-0.553 -1.189,-0.724 -1.894,-0.117 -0.705,0.606 -0.643,1.336 -0.167,1.889 z m -1.049,-2.58 c -0.252,-0.293 -0.286,-0.508 -0.015,-0.742 0.271,-0.233 0.479,-0.166 0.731,0.126 l 1.707,1.986 c 0.252,0.292 0.287,0.508 0.016,0.741 -0.272,0.234 -0.48,0.167 -0.731,-0.126 z"
             style="fill:#ffffff;fill-opacity:1;fill-rule:nonzero;stroke:none"
             id="path1017"
             inkscape:connector-curvature="0" />
        </g>
        <g
           id="g1019"
           transform="matrix(7.9402443,0,0,7.9402443,103.39424,-1766.4117)"
           style="fill:#ffffff">
          <path
             d="M 0,0 2.484,4.526 3.205,4.13 2.731,1.022 2.743,1.015 4.164,3.604 4.866,3.219 2.382,-1.307 1.705,-0.936 2.266,2.435 2.254,2.442 0.702,-0.385 Z"
             style="fill:#ffffff;fill-opacity:1;fill-rule:nonzero;stroke:none"
             id="path1021"
             inkscape:connector-curvature="0" />
        </g>
        <g
           id="g1023"
           transform="matrix(7.9402443,0,0,7.9402443,156.5121,-1791.1201)"
           style="fill:#ffffff">
          <path
             d="M 0,0 1.52,4.933 3.884,4.204 3.657,3.466 2.14,3.934 1.748,2.663 2.883,2.313 2.655,1.575 1.521,1.925 0.847,-0.261 Z"
             style="fill:#ffffff;fill-opacity:1;fill-rule:nonzero;stroke:none"
             id="path1025"
             inkscape:connector-curvature="0" />
        </g>
        <g
           id="g1027"
           transform="matrix(7.9402443,0,0,7.9402443,210.29216,-1803.8825)"
           style="fill:#ffffff">
          <path
             d="M 0,0 0.526,5.136 2.888,4.894 2.809,4.126 1.329,4.277 1.194,2.954 2.332,2.838 2.253,2.069 1.115,2.186 0.961,0.678 2.54,0.516 2.461,-0.252 Z"
             style="fill:#ffffff;fill-opacity:1;fill-rule:nonzero;stroke:none"
             id="path1029"
             inkscape:connector-curvature="0" />
        </g>
        <g
           id="g1031"
           transform="matrix(7.9402443,0,0,7.9402443,272.63579,-1805.3054)"
           style="fill:#ffffff">
          <path
             d="m 0,0 -0.883,-0.087 -0.504,5.141 1.239,0.121 C 0.842,5.272 1.388,4.902 1.496,3.805 1.577,2.979 1.289,2.613 1.003,2.449 L 1.979,0.194 1.082,0.106 0.247,2.173 C 0.134,2.148 -0.05,2.123 -0.207,2.107 Z m -0.278,2.834 0.313,0.03 C 0.513,2.911 0.673,3.106 0.613,3.719 0.553,4.331 0.358,4.492 -0.119,4.445 L -0.433,4.414 Z"
             style="fill:#ffffff;fill-opacity:1;fill-rule:nonzero;stroke:none"
             id="path1033"
             inkscape:connector-curvature="0" />
        </g>
        <g
           id="g1035"
           transform="matrix(7.9402443,0,0,7.9402443,323.40253,-1794.8155)"
           style="fill:#ffffff">
          <path
             d="M 0,0 -1.529,4.933 0.739,5.636 0.968,4.898 -0.453,4.457 -0.059,3.187 1.034,3.526 1.262,2.788 0.169,2.449 0.618,1 2.135,1.471 2.364,0.733 Z"
             style="fill:#ffffff;fill-opacity:1;fill-rule:nonzero;stroke:none"
             id="path1037"
             inkscape:connector-curvature="0" />
        </g>
        <g
           id="g1039"
           transform="matrix(7.9402443,0,0,7.9402443,375.17134,-1774.9816)"
           style="fill:#ffffff">
          <path
             d="M 0,0 -2.493,4.522 -1.773,4.919 0.599,2.854 0.612,2.86 -0.814,5.447 -0.113,5.834 2.38,1.312 1.703,0.939 -0.843,3.218 -0.856,3.211 0.701,0.387 Z"
             style="fill:#ffffff;fill-opacity:1;fill-rule:nonzero;stroke:none"
             id="path1041"
             inkscape:connector-curvature="0" />
        </g>
        <g
           id="g1043"
           transform="matrix(7.9402443,0,0,7.9402443,415.89844,-1713.3645)"
           style="fill:#ffffff">
          <path
             d="m 0,0 -0.262,0.303 c -0.285,0.33 -0.557,0.34 -0.731,0.191 -0.27,-0.234 -0.235,-0.449 0.017,-0.742 l 1.709,-1.98 c 0.253,-0.292 0.461,-0.358 0.731,-0.125 0.244,0.21 0.203,0.421 -0.016,0.675 L 1.042,-1.207 1.713,-0.628 2.1,-1.077 C 2.577,-1.629 2.64,-2.358 1.969,-2.937 1.265,-3.545 0.553,-3.376 0.076,-2.824 l -1.737,2.013 c -0.477,0.552 -0.54,1.282 0.164,1.889 0.671,0.579 1.416,0.372 1.92,-0.212 L 0.671,0.579 Z"
             style="fill:#ffffff;fill-opacity:1;fill-rule:nonzero;stroke:none"
             id="path1045"
             inkscape:connector-curvature="0" />
        </g>
        <g
           id="g1047"
           transform="matrix(7.9402443,0,0,7.9402443,463.08572,-1703.8235)"
           style="fill:#ffffff">
          <path
             d="M 0,0 -4.084,3.156 -2.633,5.034 -2.022,4.562 -2.931,3.385 -1.879,2.572 -1.18,3.477 -0.569,3.005 -1.268,2.1 -0.069,1.173 0.901,2.429 1.512,1.957 Z"
             style="fill:#ffffff;fill-opacity:1;fill-rule:nonzero;stroke:none"
             id="path1049"
             inkscape:connector-curvature="0" />
        </g>
      </g>
    </g>
  </g>
</svg>
