<?xml version="1.0" encoding="utf-8"?>
<!DOCTYPE svg PUBLIC "-//W3C//DTD SVG 20010904//EN" "http://www.w3.org/TR/2001/REC-SVG-20010904/DTD/svg10.dtd">
<svg version="1.0" xmlns="http://www.w3.org/2000/svg" width="450pt" height="393pt" viewBox="0 0 450 393" style="" preserveAspectRatio="xMidYMid meet">
<g fill="#040205FF" stroke="#040205FF">
<path d="M 202.000 15.695 C 155.784 20.644 110.309 45.699 81.313 82.186 C 74.879 90.283 65.904 103.943 66.069 105.388 C 66.125 105.877 65.741 106.552 65.217 106.888 C 64.024 107.653 58.751 118.000 59.555 118.000 C 59.878 118.000 59.480 118.663 58.669 119.474 C 54.533 123.610 46.026 152.307 43.394 171.000 C 41.061 187.565 41.959 214.126 45.408 230.562 C 57.618 288.757 94.617 335.141 148.541 359.856 C 203.677 385.128 271.058 379.632 321.767 345.728 C 327.414 341.953 331.778 338.449 331.465 337.943 C 331.152 337.437 331.560 337.278 332.371 337.589 C 335.680 338.859 371.347 300.391 372.504 294.304 C 372.693 293.312 372.881 292.926 372.923 293.446 C 373.039 294.875 378.542 285.865 383.171 276.667 C 387.593 267.882 394.693 249.741 395.225 245.871 C 395.404 244.567 395.841 243.038 396.196 242.474 C 396.551 241.909 397.835 236.509 399.050 230.474 C 402.158 215.031 402.871 186.904 400.558 170.998 C 397.578 150.512 392.595 134.292 383.507 115.500 C 377.853 103.811 368.390 88.882 364.427 85.399 C 363.111 84.243 362.299 83.034 362.621 82.712 C 363.617 81.717 338.969 57.650 330.250 51.104 C 325.713 47.697 322.000 45.173 322.000 45.494 C 322.000 45.815 321.129 45.273 320.065 44.289 C 317.463 41.883 298.014 31.218 295.500 30.818 C 294.400 30.643 292.969 30.001 292.319 29.391 C 291.670 28.780 285.595 26.449 278.819 24.209 C 257.849 17.278 242.480 14.913 220.026 15.160 C 212.037 15.248 203.925 15.489 202.000 15.695 M 218.863 79.987 C 244.559 86.245 266.525 100.695 286.102 124.219 C 299.214 139.975 311.044 161.705 316.368 179.815 L 317.931 185.131 314.528 186.553 C 305.457 190.343 287.740 189.220 271.671 183.836 C 262.078 180.623 261.729 180.687 260.340 185.919 C 259.868 187.697 260.268 188.798 261.849 190.079 C 263.032 191.037 264.000 192.240 264.000 192.752 C 264.000 195.090 288.996 200.000 300.896 200.000 C 307.341 200.000 311.405 199.458 314.891 198.133 L 319.803 196.267 320.436 199.383 C 320.784 201.098 321.343 206.620 321.679 211.656 L 322.289 220.812 318.395 222.771 C 316.253 223.848 312.813 225.275 310.750 225.942 C 308.688 226.609 307.000 227.597 307.000 228.137 C 307.000 228.676 306.606 228.874 306.124 228.576 C 305.642 228.279 302.154 229.087 298.374 230.372 C 294.593 231.658 286.663 233.968 280.750 235.506 L 270.000 238.302 270.000 242.651 C 270.000 245.044 270.476 247.000 271.058 247.000 C 275.981 247.000 312.273 235.978 319.278 232.356 L 322.081 230.907 321.382 236.181 C 320.997 239.082 320.191 243.905 319.591 246.898 L 318.500 252.341 300.000 262.601 C 289.825 268.244 281.032 273.230 280.461 273.680 C 279.889 274.131 278.989 274.575 278.461 274.667 C 276.602 274.991 246.491 291.329 245.765 292.408 C 245.361 293.008 245.024 293.192 245.015 292.815 C 245.007 292.438 241.288 293.862 236.750 295.980 C 232.213 298.097 224.000 301.105 218.500 302.665 C 209.227 305.294 207.228 305.499 191.000 305.484 C 174.634 305.468 173.032 305.297 166.272 302.841 C 162.296 301.397 156.896 298.957 154.272 297.419 C 151.647 295.881 149.418 294.674 149.318 294.736 C 148.839 295.034 138.720 285.770 132.168 279.036 C 116.516 262.947 105.934 243.705 101.481 223.235 C 100.555 218.981 99.420 214.761 98.958 213.858 C 96.943 209.920 99.671 211.700 106.230 218.605 C 114.192 226.987 123.280 233.412 134.527 238.608 C 144.096 243.029 162.914 249.247 164.677 248.571 C 165.405 248.291 166.000 248.441 166.000 248.904 C 166.000 249.366 167.688 250.027 169.750 250.372 C 171.813 250.717 174.513 251.277 175.750 251.616 C 177.901 252.206 178.000 251.970 178.000 246.276 L 178.000 240.318 172.250 239.002 C 169.088 238.278 165.825 237.594 165.000 237.482 C 164.175 237.369 162.825 236.995 162.000 236.649 C 161.175 236.303 155.054 234.260 148.398 232.109 C 127.483 225.350 114.583 218.428 103.750 208.151 L 98.000 202.696 98.008 193.598 C 98.012 188.594 98.453 181.800 98.989 178.500 C 99.524 175.200 100.137 171.150 100.350 169.500 C 100.563 167.850 100.999 165.825 101.319 165.000 C 101.639 164.175 103.080 159.906 104.522 155.514 C 105.964 151.122 108.942 144.072 111.140 139.849 C 115.114 132.210 115.160 132.166 119.817 131.539 C 130.765 130.065 155.100 136.024 171.221 144.125 C 174.368 145.706 177.181 147.000 177.471 147.000 C 177.762 147.000 178.000 144.798 178.000 142.107 L 178.000 137.214 167.743 132.723 C 150.979 125.381 144.931 123.796 132.374 123.456 L 121.249 123.154 124.197 119.577 C 125.819 117.610 126.894 116.000 126.587 116.000 C 126.280 116.000 130.185 112.108 135.265 107.350 C 149.153 94.343 162.994 85.862 181.000 79.329 C 186.826 77.215 188.692 77.021 199.000 77.460 C 205.449 77.735 214.173 78.845 218.863 79.987 M 238.500 73.989 C 241.800 74.524 245.850 75.137 247.500 75.350 C 249.150 75.563 251.175 75.989 252.000 76.296 C 252.825 76.604 256.425 77.827 260.000 79.014 C 278.304 85.091 295.839 96.082 310.166 110.456 C 321.566 121.893 332.000 138.841 332.000 145.921 C 332.000 147.000 332.352 148.099 332.781 148.365 C 333.211 148.630 333.481 152.369 333.382 156.674 C 333.187 165.128 330.372 174.448 327.127 177.385 C 325.381 178.965 325.192 178.727 323.088 172.271 C 317.899 156.352 304.982 133.447 293.288 119.427 C 288.268 113.410 277.279 102.464 271.500 97.725 C 265.457 92.770 253.952 85.912 252.837 86.601 C 252.185 87.004 251.962 86.870 252.320 86.291 C 253.535 84.325 234.641 76.594 223.500 74.497 L 216.500 73.180 224.500 73.098 C 228.900 73.052 235.200 73.453 238.500 73.989 M 306.697 278.339 C 304.605 281.580 300.600 286.657 297.797 289.621 C 286.508 301.557 264.816 311.602 241.636 315.626 C 229.738 317.691 205.980 317.074 194.500 314.402 L 186.500 312.540 199.000 312.390 C 226.900 312.056 250.676 302.978 294.968 275.744 C 302.926 270.852 310.576 266.040 311.968 265.053 L 314.500 263.257 312.500 267.851 C 311.400 270.378 308.789 275.098 306.697 278.339 M 206.398 28.135 C 209.488 29.544 209.851 30.451 211.538 41.000 C 212.285 45.675 213.110 50.465 213.371 51.645 C 214.306 55.878 208.225 60.000 201.046 60.000 C 194.370 60.000 193.047 57.990 191.311 45.214 C 189.916 34.951 189.924 33.766 191.397 31.517 C 193.891 27.711 201.635 25.965 206.398 28.135 M 157.236 43.750 C 159.271 46.054 168.000 63.567 168.000 65.345 C 168.000 67.952 163.980 71.842 159.533 73.541 C 152.310 76.299 150.888 75.369 145.095 64.090 C 138.360 50.978 138.465 47.916 145.781 44.052 C 150.448 41.588 155.215 41.462 157.236 43.750 M 286.000 320.811 C 286.000 321.258 286.918 322.608 288.039 323.811 C 289.160 325.015 289.875 326.000 289.627 326.000 C 289.378 326.000 290.735 329.826 292.641 334.502 C 295.752 342.131 295.974 343.280 294.804 345.701 C 293.347 348.716 289.091 351.470 284.368 352.454 C 279.851 353.396 276.769 350.197 272.526 340.161 C 268.151 329.815 267.970 325.858 271.750 323.211 C 273.263 322.152 275.175 321.032 276.000 320.722 C 278.347 319.839 286.000 319.908 286.000 320.811 M 82.443 116.099 C 84.399 117.253 86.000 118.592 86.000 119.074 C 86.000 119.556 87.284 119.693 88.853 119.379 C 92.133 118.723 99.379 121.970 100.875 124.767 C 101.871 126.628 101.905 131.998 100.921 131.999 C 100.602 132.000 99.288 134.250 98.000 137.000 C 96.712 139.750 95.279 142.000 94.815 142.000 C 94.351 142.000 88.180 139.098 81.102 135.551 C 74.023 132.004 67.954 129.379 67.616 129.718 C 64.760 132.573 70.230 119.575 73.283 116.250 C 75.852 113.452 77.900 113.418 82.443 116.099 M 159.934 319.367 C 159.898 320.540 159.283 325.550 158.568 330.500 C 157.853 335.450 157.387 339.641 157.531 339.814 C 157.676 339.986 160.616 336.049 164.065 331.064 C 167.514 326.079 170.823 322.007 171.418 322.015 C 174.694 322.062 174.932 323.456 173.459 333.951 C 172.214 342.826 172.151 346.614 173.276 344.917 C 182.414 331.134 184.765 328.060 186.191 328.033 C 189.207 327.974 189.170 329.896 186.070 334.242 C 184.400 336.584 180.803 341.625 178.077 345.443 C 175.351 349.262 173.388 352.819 173.715 353.348 C 174.042 353.876 173.837 354.017 173.259 353.660 C 172.682 353.303 171.962 353.656 171.660 354.443 C 171.054 356.023 166.621 355.908 166.301 354.304 C 166.192 353.755 166.752 349.300 167.547 344.403 C 168.342 339.506 168.994 335.163 168.996 334.750 C 169.007 332.562 166.803 334.818 161.930 341.981 C 156.598 349.818 153.638 351.827 152.354 348.480 C 151.842 347.145 154.553 320.407 155.512 317.328 C 156.153 315.273 160.006 317.049 159.934 319.367 M 114.765 74.423 C 117.791 77.197 118.506 78.562 118.534 81.618 L 118.568 85.390 125.359 87.104 C 133.290 89.105 133.901 89.527 131.844 91.584 C 130.462 92.967 129.479 92.909 122.061 91.015 C 115.533 89.349 113.510 89.162 112.356 90.119 C 111.122 91.143 111.621 92.062 115.609 96.111 C 118.200 98.741 120.725 100.805 121.221 100.697 C 121.717 100.589 121.218 101.625 120.112 103.000 L 118.102 105.500 106.823 94.266 L 95.543 83.032 100.522 77.922 C 104.968 73.358 107.957 71.255 110.265 71.063 C 110.685 71.029 112.710 72.540 114.765 74.423 M 322.221 301.829 C 325.626 305.508 325.711 305.782 324.414 308.866 C 323.129 311.923 323.183 312.119 325.567 313.026 C 326.943 313.549 328.391 313.929 328.785 313.870 C 329.178 313.811 329.275 313.842 329.000 313.937 C 328.725 314.033 330.446 314.901 332.824 315.867 C 337.374 317.713 338.115 318.894 335.686 320.426 C 334.679 321.062 331.852 320.404 326.700 318.335 C 321.574 316.277 318.678 315.601 317.592 316.208 C 315.327 317.476 315.505 317.925 320.482 323.500 C 322.937 326.250 324.958 328.822 324.973 329.215 C 324.988 329.608 324.126 330.397 323.059 330.969 C 321.348 331.884 319.982 330.611 311.564 320.254 C 306.310 313.789 302.023 308.050 302.036 307.500 C 302.049 306.950 304.584 304.588 307.669 302.250 C 314.814 296.836 317.529 296.757 322.221 301.829 M 344.532 186.664 C 345.180 195.238 345.053 196.205 342.563 201.664 C 341.099 204.874 337.824 209.616 335.286 212.202 L 330.670 216.904 330.826 210.702 C 330.911 207.291 330.360 201.125 329.602 197.000 L 328.222 189.500 330.993 186.500 C 334.964 182.199 338.624 175.988 340.112 171.021 L 341.399 166.724 342.619 172.112 C 343.290 175.075 344.151 181.624 344.532 186.664 M 105.312 266.354 C 106.793 268.614 106.579 269.110 99.927 278.825 C 96.117 284.390 93.000 289.188 93.000 289.488 C 93.000 289.788 95.588 288.206 98.750 285.972 C 113.001 275.907 112.072 276.378 113.578 278.437 C 114.821 280.137 113.906 281.013 102.329 289.199 C 95.398 294.099 89.143 297.885 88.429 297.611 C 87.715 297.337 86.685 296.279 86.139 295.260 C 85.335 293.757 86.461 291.480 92.101 283.204 C 95.926 277.592 98.787 273.000 98.459 273.000 C 98.131 273.000 94.063 275.700 89.420 279.000 C 84.776 282.300 80.588 285.000 80.111 285.000 C 79.635 285.000 78.716 284.362 78.069 283.583 C 77.104 282.420 78.742 280.875 87.196 274.974 C 92.863 271.019 98.625 266.956 100.000 265.947 C 103.255 263.557 103.491 263.575 105.312 266.354 M 369.712 113.250 C 370.834 115.733 369.820 117.193 359.378 128.135 C 356.420 131.235 354.000 134.080 354.000 134.458 C 354.000 134.836 358.729 132.675 364.510 129.656 C 374.601 124.387 375.062 124.248 376.091 126.170 C 377.378 128.575 377.925 128.051 370.000 132.010 C 366.425 133.797 363.225 135.688 362.888 136.214 C 362.552 136.740 361.957 137.065 361.567 136.936 C 361.176 136.806 358.187 137.977 354.925 139.536 C 349.113 142.314 348.962 142.332 347.528 140.436 C 346.723 139.371 346.067 138.050 346.072 137.500 C 346.076 136.950 349.653 132.675 354.020 128.000 C 358.388 123.325 361.970 119.231 361.981 118.902 C 361.991 118.573 357.697 120.523 352.437 123.235 C 343.261 127.966 340.000 128.617 340.000 125.718 C 340.000 124.462 365.194 111.036 367.597 111.011 C 368.201 111.005 369.152 112.013 369.712 113.250 M 344.568 272.500 C 344.714 273.600 345.287 275.677 345.841 277.115 C 346.790 279.580 347.358 279.770 355.709 280.423 C 366.089 281.235 368.304 282.123 365.916 284.512 C 364.560 285.868 363.189 285.955 356.431 285.116 C 352.086 284.577 348.371 284.296 348.174 284.492 C 347.072 285.594 349.632 288.862 353.530 291.328 C 358.000 294.156 359.209 296.599 356.630 297.588 C 355.877 297.878 349.577 294.234 342.630 289.491 C 331.382 281.812 330.113 280.656 331.035 278.934 C 331.605 277.870 332.332 277.000 332.651 277.000 C 332.971 277.000 335.430 278.613 338.116 280.585 C 343.176 284.299 343.794 284.089 341.859 279.315 C 341.231 277.767 340.567 275.825 340.384 275.000 C 338.921 268.402 338.877 266.853 340.112 265.365 C 341.309 263.922 341.608 264.113 342.879 267.124 C 343.662 268.981 344.422 271.400 344.568 272.500 M 248.486 32.250 C 246.855 41.258 246.962 41.349 253.000 36.094 C 258.420 31.378 264.000 29.038 264.000 31.482 C 264.000 32.145 261.284 34.866 257.964 37.529 C 253.754 40.906 252.113 42.843 252.539 43.935 C 255.576 51.709 258.742 62.037 258.187 62.362 C 257.809 62.584 256.600 62.416 255.500 61.990 C 254.107 61.450 252.775 58.904 251.113 53.607 C 249.801 49.423 248.393 46.000 247.986 46.000 C 246.577 46.000 245.258 48.515 244.577 52.500 C 243.252 60.252 242.858 60.829 240.089 59.076 C 238.895 58.320 239.115 55.862 241.516 43.092 C 244.257 28.513 244.437 28.000 246.804 28.000 C 249.142 28.000 249.220 28.197 248.486 32.250 M 139.748 306.680 C 138.725 307.704 137.543 307.147 133.609 303.784 L 128.737 299.619 125.303 303.366 L 121.870 307.113 126.185 310.972 C 129.923 314.316 130.257 314.928 128.684 315.548 C 127.381 316.062 125.890 315.317 123.405 312.908 L 119.941 309.551 116.037 314.025 C 112.115 318.519 112.098 319.379 115.892 321.224 C 116.226 321.386 117.809 322.964 119.409 324.730 C 121.879 327.457 122.072 328.035 120.689 328.566 C 119.601 328.983 117.060 327.450 113.031 323.945 C 109.714 321.060 107.000 318.352 107.000 317.927 C 107.000 317.501 108.165 315.769 109.589 314.077 C 111.013 312.385 111.913 310.944 111.589 310.875 C 111.265 310.806 111.364 310.694 111.810 310.625 C 112.255 310.556 115.892 306.792 119.893 302.259 L 127.166 294.018 134.091 299.715 C 139.683 304.316 140.772 305.656 139.748 306.680 M 333.940 68.428 C 334.867 69.544 334.672 71.322 333.048 76.580 C 331.906 80.278 331.140 83.473 331.347 83.680 C 331.554 83.887 333.023 83.524 334.611 82.874 C 336.200 82.224 338.007 81.585 338.626 81.453 C 339.245 81.321 341.086 80.920 342.717 80.562 C 344.806 80.103 346.066 80.374 346.983 81.480 C 347.699 82.342 348.108 83.218 347.893 83.425 C 347.677 83.632 343.450 85.015 338.500 86.500 C 330.684 88.843 328.819 89.862 324.323 94.243 C 319.464 98.977 319.041 99.184 317.457 97.600 C 315.873 96.016 315.879 95.792 317.540 93.956 C 318.513 92.880 319.128 91.947 318.905 91.882 C 318.682 91.816 318.771 91.794 319.102 91.832 C 319.433 91.870 321.066 90.461 322.731 88.701 C 325.573 85.696 327.392 81.319 329.983 71.250 C 331.143 66.743 332.022 66.116 333.940 68.428 M 247.102 339.526 C 243.544 348.004 243.360 348.944 244.075 355.004 C 244.922 362.188 244.711 363.000 242.002 363.000 C 240.406 363.000 240.017 361.940 239.431 356.000 C 239.052 352.150 238.350 349.000 237.871 349.000 C 237.392 349.000 237.000 348.474 237.000 347.832 C 237.000 347.189 234.786 343.628 232.079 339.919 C 229.373 336.210 227.423 332.910 227.746 332.587 C 229.554 330.779 232.328 332.563 236.161 337.998 L 240.391 343.996 242.548 338.748 C 243.734 335.862 244.993 332.682 245.347 331.683 C 245.780 330.455 246.783 329.969 248.440 330.183 L 250.891 330.500 247.102 339.526 M 342.004 221.481 C 340.987 225.859 340.371 229.791 340.636 230.220 C 340.901 230.649 340.724 231.000 340.242 231.000 C 339.367 231.000 335.451 241.827 335.810 243.250 C 335.915 243.663 335.599 244.000 335.108 244.000 C 334.618 244.000 333.933 245.131 333.586 246.513 C 333.047 248.661 332.558 248.932 330.228 248.375 C 326.500 247.484 325.593 246.870 326.856 246.089 C 327.445 245.725 328.657 241.194 329.550 236.021 L 331.173 226.614 337.087 220.917 C 340.339 217.783 343.000 214.645 343.000 213.943 C 343.000 213.241 343.192 212.859 343.427 213.094 C 343.662 213.329 343.022 217.103 342.004 221.481 M 299.000 45.897 C 299.000 46.351 297.146 50.048 294.879 54.112 C 292.613 58.175 290.738 62.063 290.712 62.750 C 290.687 63.438 290.375 64.000 290.019 64.000 C 289.662 64.000 288.654 65.502 287.779 67.338 L 286.187 70.676 291.514 73.463 C 294.999 75.286 296.659 76.725 296.314 77.625 C 296.023 78.381 295.598 79.000 295.368 79.000 C 293.822 79.000 281.000 71.762 281.000 70.889 C 281.000 70.292 283.213 65.685 285.918 60.652 C 288.623 55.618 291.844 49.610 293.077 47.300 C 294.968 43.755 295.605 43.253 297.159 44.085 C 298.172 44.627 299.000 45.442 299.000 45.897 M 329.000 254.900 C 329.000 255.394 327.455 258.094 325.568 260.900 C 323.680 263.705 322.291 266.000 322.482 266.000 C 322.673 266.000 321.434 267.576 319.729 269.502 C 317.104 272.467 316.607 272.704 316.485 271.048 C 316.406 269.973 316.725 269.330 317.194 269.620 C 317.663 269.910 319.578 266.788 321.449 262.682 C 324.503 255.980 325.802 254.337 328.250 254.079 C 328.663 254.036 329.000 254.405 329.000 254.900 "/></g>
<g fill="#040205FF" stroke="#040205FF">
<path d="M 187.200 109.200 C 185.666 110.734 185.437 282.000 186.969 282.000 C 187.501 282.000 187.685 282.656 187.378 283.458 C 186.460 285.850 190.365 286.184 215.144 285.832 C 238.087 285.506 238.602 285.452 244.250 282.805 C 247.413 281.323 250.000 279.688 250.000 279.172 C 250.000 278.656 250.933 277.989 252.074 277.691 C 253.215 277.393 254.393 276.215 254.691 275.074 C 254.989 273.933 255.647 273.000 256.152 273.000 C 256.658 273.000 258.068 270.863 259.286 268.250 C 261.409 263.696 261.500 262.323 261.500 235.000 C 261.500 210.825 261.253 205.958 259.875 202.927 C 257.751 198.257 252.464 192.291 248.745 190.368 C 245.802 188.846 245.798 188.830 247.893 187.362 C 249.052 186.551 250.000 185.237 250.000 184.443 C 250.000 183.649 250.444 183.000 250.987 183.000 C 251.529 183.000 252.736 181.313 253.669 179.250 C 255.851 174.422 256.796 141.390 255.039 131.305 C 252.956 119.339 247.409 112.407 237.568 109.471 C 231.130 107.551 189.076 107.324 187.200 109.200 M 232.321 202.899 C 240.503 207.071 241.000 208.927 241.000 235.312 C 241.000 256.976 240.926 257.815 238.715 261.102 C 235.637 265.680 231.549 266.876 218.750 266.944 L 208.000 267.000 208.000 241.151 C 208.000 226.934 207.705 211.813 207.345 207.548 L 206.689 199.795 217.095 200.118 C 225.768 200.387 228.303 200.850 232.321 202.899 M 230.093 128.548 C 231.739 129.399 233.540 131.289 234.094 132.748 C 234.649 134.207 235.103 143.001 235.103 152.290 C 235.103 166.824 234.842 169.682 233.237 172.776 C 230.580 177.894 225.652 180.118 215.572 180.747 C 208.078 181.215 207.162 181.081 206.849 179.476 C 206.657 178.490 206.627 166.279 206.783 152.341 L 207.066 127.000 217.083 127.000 C 224.168 127.000 227.975 127.453 230.093 128.548 "/></g>
<g fill="#040205FF" stroke="#040205FF">
<path d="M 196.010 32.488 C 195.047 33.648 195.020 36.051 195.887 43.405 C 196.499 48.591 197.266 53.530 197.592 54.379 C 198.464 56.653 201.742 57.349 205.074 55.969 C 207.337 55.032 208.000 54.114 208.000 51.920 C 208.000 46.980 205.779 33.551 204.747 32.250 C 203.374 30.520 197.511 30.680 196.010 32.488 "/></g>
<g fill="#040205FF" stroke="#040205FF">
<path d="M 146.189 48.039 C 143.585 50.464 143.485 51.342 145.571 53.429 C 146.436 54.293 146.881 55.000 146.560 55.000 C 146.240 55.000 147.788 58.600 150.000 63.000 C 152.233 67.441 154.664 71.000 155.464 71.000 C 158.106 71.000 161.954 68.720 162.566 66.793 C 163.198 64.800 157.169 50.949 154.278 47.754 C 152.165 45.420 148.875 45.536 146.189 48.039 "/></g>
<g fill="#040205FF" stroke="#040205FF">
<path d="M 277.098 324.265 C 272.458 326.651 272.443 327.992 276.940 338.246 C 279.255 343.525 281.794 348.091 282.583 348.394 C 284.432 349.103 288.206 347.661 289.927 345.588 C 292.141 342.920 283.401 322.927 280.059 323.015 C 279.751 323.023 278.419 323.585 277.098 324.265 "/></g>
<g fill="#040205FF" stroke="#040205FF">
<path d="M 86.773 125.750 C 83.314 129.689 83.698 131.455 88.523 133.799 C 91.015 135.010 93.514 136.000 94.078 136.000 C 94.641 136.000 95.800 134.329 96.654 132.287 C 98.175 128.646 98.153 128.528 95.547 126.287 C 92.375 123.558 88.886 123.345 86.773 125.750 "/></g>
<g fill="#040205FF" stroke="#040205FF">
<path d="M 310.245 304.750 L 307.065 307.500 310.563 311.452 L 314.062 315.405 317.602 311.864 L 321.143 308.324 318.483 305.162 C 315.231 301.297 314.292 301.250 310.245 304.750 "/></g>
<g fill="#040205FF" stroke="#040205FF">
<path d="M 104.545 78.545 C 103.145 79.945 102.000 81.432 102.000 81.849 C 102.000 82.826 108.868 89.503 109.285 88.932 C 109.459 88.694 110.839 86.975 112.353 85.110 L 115.106 81.720 112.366 78.860 C 108.999 75.345 107.794 75.297 104.545 78.545 "/></g>
<g fill="#040205FF" stroke="#040205FF">
<path d="M 73.526 121.950 C 71.524 125.820 71.466 125.653 75.492 127.563 C 79.760 129.588 81.525 129.027 82.448 125.352 C 83.003 123.142 82.686 122.165 80.966 120.771 C 77.771 118.185 75.268 118.581 73.526 121.950 "/></g>
</svg>
