<?xml version="1.0" encoding="UTF-8" standalone="no"?>
<!-- Created with Inkscape (http://www.inkscape.org/) -->

<svg
   xmlns:dc="http://purl.org/dc/elements/1.1/"
   xmlns:cc="http://creativecommons.org/ns#"
   xmlns:rdf="http://www.w3.org/1999/02/22-rdf-syntax-ns#"
   xmlns:svg="http://www.w3.org/2000/svg"
   xmlns="http://www.w3.org/2000/svg"
   xmlns:sodipodi="http://sodipodi.sourceforge.net/DTD/sodipodi-0.dtd"
   xmlns:inkscape="http://www.inkscape.org/namespaces/inkscape"
   width="1000"
   height="1030.512"
   viewBox="0 0 264.58331 272.65628"
   version="1.1"
   id="svg2121"
   inkscape:version="0.92.3 (2405546, 2018-03-11)"
   sodipodi:docname="drawing.svg">
  <defs
     id="defs2115" />
  <sodipodi:namedview
     id="base"
     pagecolor="#ffffff"
     bordercolor="#666666"
     borderopacity="1.0"
     inkscape:pageopacity="0.0"
     inkscape:pageshadow="2"
     inkscape:zoom="0.35"
     inkscape:cx="851.41842"
     inkscape:cy="412.71788"
     inkscape:document-units="mm"
     inkscape:current-layer="layer1"
     showgrid="false"
     fit-margin-top="0"
     fit-margin-left="0"
     fit-margin-right="0"
     fit-margin-bottom="0"
     units="px" />
  <metadata
     id="metadata2118">
    <rdf:RDF>
      <cc:Work
         rdf:about="">
        <dc:format>image/svg+xml</dc:format>
        <dc:type
           rdf:resource="http://purl.org/dc/dcmitype/StillImage" />
        <dc:title></dc:title>
      </cc:Work>
    </rdf:RDF>
  </metadata>
  <g
     inkscape:label="Layer 1"
     inkscape:groupmode="layer"
     id="layer1"
     transform="translate(39.306838,186.22587)">
    <g
       id="g1825"
       transform="matrix(0.42286028,0,0,-0.42286028,261.18681,-680.45389)">
      <g
         style="fill:#e01c50;fill-opacity:1;stroke:none"
         transform="matrix(7.9402443,0,0,7.9402443,-397.9181,-1813.5643)"
         id="g441">
        <path
           inkscape:connector-curvature="0"
           id="path443"
           style="fill:#e01c50;fill-opacity:1;stroke:none;stroke-width:0.099;stroke-linecap:butt;stroke-linejoin:miter;stroke-miterlimit:4;stroke-dasharray:none;stroke-opacity:1"
           d="M 0,0 C 20.55,0 37.209,16.675 37.209,37.244 37.209,57.814 20.55,74.489 0,74.489 -20.55,74.489 -37.209,57.814 -37.209,37.244 -37.209,16.675 -20.55,0 0,0 Z" />
      </g>
      <g
         style="fill:#b39a57;fill-opacity:1"
         transform="matrix(7.6616941,0,0,7.6616941,-398.29204,-1802.3454)"
         id="g437">
        <path
           inkscape:connector-curvature="0"
           id="path439"
           style="fill:#b39a57;fill-opacity:1;fill-rule:nonzero;stroke:none"
           d="M 0,0 C 20.55,0 37.209,16.675 37.209,37.244 37.209,57.814 20.55,74.489 0,74.489 -20.55,74.489 -37.209,57.814 -37.209,37.244 -37.209,16.675 -20.55,0 0,0" />
      </g>
      <g
         transform="matrix(7.9402443,0,0,7.9402443,-398.36593,-1801.8262)"
         id="g445">
        <path
           inkscape:connector-curvature="0"
           id="path447"
           style="fill:none;stroke:#000000;stroke-width:0.616;stroke-linecap:butt;stroke-linejoin:miter;stroke-miterlimit:4;stroke-dasharray:none;stroke-opacity:1"
           d="M 0,0 C 19.809,0 35.867,16.074 35.867,35.901 35.867,55.729 19.809,71.803 0,71.803 -19.809,71.803 -35.867,55.729 -35.867,35.901 -35.867,16.074 -19.809,0 0,0 Z" />
      </g>
      <g
         style="fill:#000000;fill-opacity:1;stroke:#e01c50;stroke-opacity:1"
         transform="matrix(7.9402443,0,0,7.9402443,-277.35899,-1256.8158)"
         id="g453">
        <path
           inkscape:connector-curvature="0"
           id="path455"
           style="fill:#000000;fill-opacity:1;stroke:#e01c50;stroke-width:0.85000002;stroke-linecap:butt;stroke-linejoin:miter;stroke-miterlimit:4;stroke-dasharray:none;stroke-opacity:1"
           d="M 0,0 C -0.835,1.478 -8.092,4.694 -14.943,4.694 -21.794,4.694 -29.052,1.478 -29.887,0 V -8.845 H 0.008 Z" />
      </g>
      <g
         style="fill:#000000;fill-opacity:1;stroke:#e01c50;stroke-opacity:1"
         transform="matrix(7.9402443,0,0,7.9402443,-309.23192,-1191.0746)"
         id="g461">
        <path
           inkscape:connector-curvature="0"
           id="path463"
           style="fill:#000000;fill-opacity:1;stroke:#e01c50;stroke-width:0.852;stroke-linecap:butt;stroke-linejoin:miter;stroke-miterlimit:4;stroke-dasharray:none;stroke-opacity:1"
           d="M 0,0 C -3.825,1.808 -7.316,2.342 -11.068,2.381 -15.734,2.429 -20.079,1.343 -22.136,0.155 V -16.119 H 0.006 Z" />
      </g>
      <g
         transform="matrix(7.9402443,0,0,7.9402443,-426.83329,-1192.5634)"
         id="g465">
        <path
           inkscape:connector-curvature="0"
           id="path467"
           style="fill:#000000;fill-opacity:1;fill-rule:nonzero;stroke:none"
           d="M 0,0 V -0.197 C -0.186,-0.28 -0.208,-0.401 -0.208,-0.549 v -7.646 c 0,-0.148 0.022,-0.258 0.208,-0.241 v -0.197 l -1.414,-0.188 v 0.198 c 0.134,0.035 0.171,0.111 0.171,0.226 0,0.214 -0.186,0.378 -2.15,4.706 v -5.053 c 0,-0.148 0.022,-0.257 0.208,-0.24 v -0.198 l -1.414,-0.376 v 0.198 c 0.186,0.082 0.208,0.203 0.208,0.351 v 7.6 c 0,0.148 -0.022,0.257 -0.208,0.24 v 0.198 c 0.189,0.071 1.623,0.442 1.794,0.477 v -0.198 c -0.172,-0.062 -0.209,-0.17 -0.209,-0.269 0,-0.181 1.288,-2.911 1.808,-4.039 v 4.312 c 0,0.197 -0.059,0.264 -0.156,0.254 v 0.198 C -1.221,-0.193 -0.177,-0.011 0,0" />
      </g>
      <g
         style="fill:#ffffff"
         transform="matrix(7.9402443,0,0,7.9402443,-426.83329,-1192.5634)"
         id="g469">
        <path
           inkscape:connector-curvature="0"
           id="path471"
           style="fill:#ffffff;stroke:#ffffff;stroke-width:0.222;stroke-linecap:butt;stroke-linejoin:miter;stroke-miterlimit:4;stroke-dasharray:none;stroke-opacity:1"
           d="M 0,0 V -0.197 C -0.186,-0.28 -0.208,-0.401 -0.208,-0.549 v -7.646 c 0,-0.148 0.022,-0.258 0.208,-0.241 v -0.197 l -1.414,-0.188 v 0.198 c 0.134,0.035 0.171,0.111 0.171,0.226 0,0.214 -0.186,0.378 -2.15,4.706 v -5.053 c 0,-0.148 0.022,-0.257 0.208,-0.24 v -0.198 l -1.414,-0.376 v 0.198 c 0.186,0.082 0.208,0.203 0.208,0.351 v 7.6 c 0,0.148 -0.022,0.257 -0.208,0.24 v 0.198 c 0.189,0.071 1.623,0.442 1.794,0.477 v -0.198 c -0.172,-0.062 -0.209,-0.17 -0.209,-0.269 0,-0.181 1.288,-2.911 1.808,-4.039 v 4.312 c 0,0.197 -0.059,0.264 -0.156,0.254 v 0.198 C -1.221,-0.193 -0.177,-0.011 0,0 Z" />
      </g>
      <g
         transform="matrix(7.9402443,0,0,7.9402443,-410.05079,-1193.3225)"
         id="g473">
        <path
           inkscape:connector-curvature="0"
           id="path475"
           style="fill:#000000;fill-opacity:1;fill-rule:nonzero;stroke:none"
           d="m 0,0 c 0,0.1 -0.022,0.179 -0.208,0.201 v 0.134 h 2.835 c 0.804,0 1.391,-0.915 1.391,-2.019 0,-0.67 -0.297,-2.019 -0.714,-2.153 V -3.859 C 3.803,-4.06 4.167,-4.93 4.167,-5.756 4.167,-6.648 3.721,-8.344 2.664,-8.344 H -0.208 V -8.21 C -0.022,-8.187 0,-8.109 0,-8.009 Z m 1.116,-3.279 h 1.012 c 0.64,0 0.804,1.003 0.804,1.45 0,0.446 -0.164,0.981 -0.804,0.981 H 1.116 Z m 0,-3.882 h 1.265 c 0.521,0 0.73,1.115 0.73,1.606 0,0.491 -0.209,1.138 -0.73,1.138 H 1.116 Z" />
      </g>
      <g
         style="fill:#ffffff"
         transform="matrix(7.9402443,0,0,7.9402443,-410.05079,-1193.3225)"
         id="g477">
        <path
           inkscape:connector-curvature="0"
           id="path479"
           style="fill:#ffffff;stroke:#ffffff;stroke-width:0.222;stroke-linecap:butt;stroke-linejoin:miter;stroke-miterlimit:4;stroke-dasharray:none;stroke-opacity:1"
           d="m 0,0 c 0,0.1 -0.022,0.179 -0.208,0.201 v 0.134 h 2.835 c 0.804,0 1.391,-0.915 1.391,-2.019 0,-0.67 -0.297,-2.019 -0.714,-2.153 V -3.859 C 3.803,-4.06 4.167,-4.93 4.167,-5.756 4.167,-6.648 3.721,-8.344 2.664,-8.344 H -0.208 V -8.21 C -0.022,-8.187 0,-8.109 0,-8.009 Z m 1.116,-3.279 h 1.012 c 0.64,0 0.804,1.003 0.804,1.45 0,0.446 -0.164,0.981 -0.804,0.981 H 1.116 Z m 0,-3.882 h 1.265 c 0.521,0 0.73,1.115 0.73,1.606 0,0.491 -0.209,1.138 -0.73,1.138 H 1.116 Z" />
      </g>
      <g
         transform="matrix(7.9402443,0,0,7.9402443,-354.61359,-1248.3706)"
         id="g481">
        <path
           inkscape:connector-curvature="0"
           id="path483"
           style="fill:#000000;fill-opacity:1;fill-rule:nonzero;stroke:none"
           d="m 0,0 c -0.193,-1.202 -0.238,-1.35 -0.238,-1.453 0,-0.103 0.03,-0.179 0.134,-0.206 l -0.024,-0.182 -1.325,0.219 v 0.206 c 0.104,0.025 0.149,0.082 0.194,0.345 0.067,0.377 1.356,7.378 1.356,7.481 0,0.12 -0.082,0.175 -0.149,0.209 V 6.825 L 1.89,6.328 V 6.122 C 1.808,6.126 1.756,6.105 1.756,5.933 1.756,5.796 2.672,0.829 3.133,-1.895 3.207,-2.326 3.252,-2.44 3.341,-2.463 v -0.205 l -1.466,0.375 v 0.206 c 0.104,-0.01 0.142,0.066 0.142,0.169 0,0.069 -0.224,1.299 -0.253,1.529 z M 0.186,1.387 1.57,1.032 0.848,4.983 Z" />
      </g>
      <g
         style="fill:#ffffff"
         transform="matrix(7.9402443,0,0,7.9402443,-354.61359,-1248.3706)"
         id="g485">
        <path
           inkscape:connector-curvature="0"
           id="path487"
           style="fill:#ffffff;stroke:#ffffff;stroke-width:0.222;stroke-linecap:butt;stroke-linejoin:miter;stroke-miterlimit:4;stroke-dasharray:none;stroke-opacity:1"
           d="m 0,0 c -0.193,-1.202 -0.238,-1.35 -0.238,-1.453 0,-0.103 0.03,-0.179 0.134,-0.206 l -0.024,-0.182 -1.325,0.219 v 0.206 c 0.104,0.025 0.149,0.082 0.194,0.345 0.067,0.377 1.356,7.378 1.356,7.481 0,0.12 -0.082,0.175 -0.149,0.209 V 6.825 L 1.89,6.328 V 6.122 C 1.808,6.126 1.756,6.105 1.756,5.933 1.756,5.796 2.672,0.829 3.133,-1.895 3.207,-2.326 3.252,-2.44 3.341,-2.463 v -0.205 l -1.466,0.375 v 0.206 c 0.104,-0.01 0.142,0.066 0.142,0.169 0,0.069 -0.224,1.299 -0.253,1.529 z M 0.186,1.387 1.57,1.032 0.848,4.983 Z" />
      </g>
      <path
         d="m -542.96731,-1682.6599 c 94.43333,-83.2138 236.01582,-71.2558 316.23611,26.711 80.21235,97.9667 68.68311,244.8454 -25.75021,328.0591 -94.43333,83.2138 -236.01582,71.2558 -316.23611,-26.711 -80.21235,-97.9667 -68.68312,-244.8453 25.75021,-328.0591"
         style="fill:#c26d27;fill-opacity:1;fill-rule:nonzero;stroke:none;stroke-width:7.9402442"
         id="path491"
         inkscape:connector-curvature="0" />
      <g
         transform="matrix(7.9402443,0,0,7.9402443,-542.96731,-1682.6599)"
         id="g493">
        <path
           inkscape:connector-curvature="0"
           id="path495"
           style="fill:none;stroke:#000000;stroke-width:1.13300002;stroke-linecap:butt;stroke-linejoin:miter;stroke-miterlimit:4;stroke-dasharray:none;stroke-opacity:1"
           d="M 0,0 C 11.893,-10.48 29.724,-8.974 39.827,3.364 49.929,15.702 48.477,34.2 36.584,44.68 24.691,55.16 6.86,53.654 -3.243,41.316 -13.345,28.978 -11.893,10.48 0,0 Z" />
      </g>
      <path
         d="m -543.7256,-1680.8217 c 94.43333,-83.2138 236.01582,-71.2558 316.23611,26.711 80.21235,97.9667 68.68311,244.8454 -25.75021,328.0591 -94.43333,83.2058 -236.01582,71.2478 -316.23611,-26.711 -80.21235,-97.9667 -68.68312,-244.8453 25.75021,-328.0591 z m 118.49227,409.1925 c -57.88439,-132.9911 -31.29251,-350.4665 54.76386,-461.5505 m -173.25613,52.358 c 62.17211,-27.3224 237.39742,-57.0507 348.48144,80.6332 m -316.82369,296.0917 c -15.64228,-25.0277 -111.86216,-186.5719 26.98889,-347.7192 18.34197,-21.2878 44.7274,-36.9936 47.72087,-52.4135 2.73939,-14.086 -4.30361,-22.6853 -11.33867,-26.5999 m 104.81917,452.9433 c 17.21445,-20.3429 75.09883,-203.3973 17.21445,-356.7234 -13.84779,-36.676 -21.90714,-50.0632 -18.77868,-58.6704 5.51053,-15.158 25.82168,-18.7708 56.32809,-12.5139"
         style="fill:none;stroke:#000000;stroke-width:8.99629688;stroke-linecap:butt;stroke-linejoin:miter;stroke-miterlimit:4;stroke-dasharray:none;stroke-opacity:1"
         id="path499"
         inkscape:connector-curvature="0" />
      <g
         transform="matrix(7.9402443,0,0,7.9402443,-398.01418,-1327.3744)"
         id="g501">
        <path
           inkscape:connector-curvature="0"
           id="path503"
           style="fill:#000000;fill-opacity:1;fill-rule:nonzero;stroke:none"
           d="M 0,0 39.431,-13.857 V -31.123 L 0.13,-46.911 l -39.5,15.788 v 17.347 z" />
      </g>
      <g
         style="fill:#e01c50;fill-opacity:1"
         transform="matrix(7.9402443,0,0,7.9402443,-398.62478,-1293.3592)"
         id="g505">
        <path
           inkscape:connector-curvature="0"
           id="path507"
           style="fill:#e01c50;fill-opacity:1;fill-rule:nonzero;stroke:none"
           d="M 0,0 37.816,-14.128 V -34.641 L 0.125,-49.593 -37.566,-34.641 v 20.513 z" />
      </g>
      <g
         style="fill:#e01c50;fill-opacity:1"
         transform="matrix(7.9402443,0,0,7.9402443,-398.62478,-1293.3592)"
         id="g509">
        <path
           inkscape:connector-curvature="0"
           id="path511"
           style="fill:#e01c50;fill-opacity:1;stroke:#000000;stroke-width:1.13300002;stroke-linecap:butt;stroke-linejoin:miter;stroke-miterlimit:4;stroke-dasharray:none;stroke-opacity:1"
           d="M 0,0 37.816,-14.128 V -34.641 L 0.125,-49.593 -37.566,-34.641 v 20.513 z" />
      </g>
      <g
         style="fill:#ffffff"
         transform="matrix(7.9402443,0,0,7.9402443,-650.07961,-1553.0663)"
         id="g513">
        <path
           inkscape:connector-curvature="0"
           id="path515"
           style="fill:#ffffff;fill-opacity:1;fill-rule:nonzero;stroke:none"
           d="M 0,0 -1.353,14.428 -2.251,14.096 -2.446,15.984 0.925,17.147 1.417,3.16 2.104,17.506 3.914,18.231 4.895,2.997 5.606,18.778 8.806,19.822 8.805,17.837 8.297,17.674 6.193,-2.454 3.669,-1.387 3.086,7.191 2.482,-0.973 Z" />
      </g>
      <g
         style="fill:#ffffff"
         transform="matrix(7.9402443,0,0,7.9402443,-447.79395,-1634.222)"
         id="g517">
        <path
           inkscape:connector-curvature="0"
           id="path519"
           style="fill:#ffffff;fill-opacity:1;fill-rule:nonzero;stroke:none"
           d="M 0,0 C 0.84,-0.349 1.429,0.001 1.429,1.088 V 13.76 c 0,1.218 -0.376,1.968 -0.655,2.447 l -3.926,7.047 c -0.276,0.212 -0.232,2.984 -0.232,3.088 v 5.084 c 0,0.286 -0.135,0.837 0.391,1.043 l 1.011,0.331 c 0.638,0.206 0.652,-0.307 0.649,-0.811 v -6.907 l 2.319,-1.046 v 9.52 c 0,2.476 -0.404,2.57 -1.715,2.167 -0.389,-0.119 -3.926,-1.334 -3.926,-1.334 -1.257,-0.385 -1.049,-1.048 -1.049,-2.877 v -6.449 c 0,-2.292 0.536,-2.801 0.938,-3.495 l 3.658,-6.722 c 0.065,-0.107 0.218,-0.368 0.218,-1.445 V 3.897 c 0,-1.221 0.096,-1.485 -0.458,-1.252 l -1.387,0.59 C -3.094,3.374 -3.052,3.512 -3.052,4.29 v 7.025 l -2.32,1.756 V 3.493 c 0,-0.312 -0.208,-1.167 0.904,-1.719 z" />
      </g>
      <g
         style="fill:#ffffff"
         transform="matrix(7.9402443,0,0,7.9402443,-282.15728,-1605.0336)"
         id="g521">
        <path
           inkscape:connector-curvature="0"
           id="path523"
           style="fill:#ffffff;fill-opacity:1;fill-rule:nonzero;stroke:none"
           d="m 0,0 v 1.85 l 0.941,0.406 v 24.447 l -1.118,0.401 V 29.18 L 4.026,27.687 C 6.762,26.68 7.641,26.284 7.639,23.726 L 7.638,16.67 C 7.637,15.426 6.935,14.744 5.251,14.806 V 14.759 C 7.495,14.695 7.368,13.567 7.368,11.301 L 7.365,5.563 C 7.364,3.943 7.63,3.705 7.794,3.112 L 5.237,2.098 c -0.206,0.39 -0.39,0.6 -0.389,1.75 l 0.003,7.904 c 0.001,1.033 -0.159,1.721 -1.287,1.721 L 3.559,3.253 4.116,3.485 V 1.656 Z m 3.806,15.887 0.349,-0.098 c 0.473,-0.132 0.963,0.155 0.964,0.953 l 0.002,7.942 c 10e-4,0.797 -0.488,0.927 -0.961,1.085 l -0.35,0.127 z" />
      </g>
      <g
         style="fill:#ffffff"
         transform="matrix(7.9402443,0,0,7.9402443,-168.49427,-1411.9777)"
         id="g525">
        <path
           inkscape:connector-curvature="0"
           id="path527"
           style="fill:#ffffff;fill-opacity:1;fill-rule:nonzero;stroke:none"
           d="m 0,0 2.726,-12.926 -0.72,10.175 -0.91,0.278 v 2.046 L 4.922,-1.723 V -3.778 L 4.295,-3.576 V -17.064 L 1.911,-18.088 -1.012,-7.029 V -19.16 l -3.503,-1.478 v 1.865 l 0.988,0.418 v 17.528 l -0.988,0.345 v 2.02 z" />
      </g>
      <g
         style="fill:#ffffff"
         transform="matrix(7.9402443,0,0,7.9402443,-578.41653,-1581.2947)"
         id="g529">
        <path
           inkscape:connector-curvature="0"
           id="path531"
           style="fill:#ffffff;fill-opacity:1;fill-rule:nonzero;stroke:none"
           d="M 0,0 V 1.864 L 0.842,1.472 0.861,23.74 8.636,26.491 v -9.4 l -2.28,0.988 v 5.605 L 3.53,22.686 V 12.462 h 2.008 v 1.684 H 7.21 V 8.599 H 5.538 v 1.685 H 3.53 V 0.465 L 6.356,-0.664 V 5.46 l 2.28,0.952 v -9.843 z" />
      </g>
      <g
         style="fill:#ffffff"
         transform="matrix(7.9402443,0,0,7.9402443,-333.07806,-1499.6475)"
         id="g533">
        <path
           inkscape:connector-curvature="0"
           id="path535"
           style="fill:#ffffff;fill-opacity:1;fill-rule:nonzero;stroke:none"
           d="M 0,0 H 1.852 V -1.684 H 3.394 V 3.863 H 1.852 V 2.178 L 0,2.179 V 16.215 L 2.607,15.346 V 6.849 l 2.102,1.013 v 8.774 l -7.171,2.511 -0.017,-34.027 -0.777,-0.396 v -1.8 l 7.965,3.135 v 8.415 L 2.607,-4.47 v -8.421 L 0,-13.988 V 0.001 Z" />
      </g>
      <g
         style="fill:#ffffff"
         transform="matrix(7.9402443,0,0,7.9402443,-397.27335,-1649.0552)"
         id="g537">
        <path
           inkscape:connector-curvature="0"
           id="path539"
           style="fill:#ffffff;fill-opacity:1;fill-rule:nonzero;stroke:none"
           d="m 0,0 -1.989,0.765 v 2.068 l 0.594,-0.272 v 34.852 l -3.433,-1.131 -0.017,2.009 4.675,1.682 5.073,-1.709 V 36.255 L 1.268,37.413 V 2.561 L 1.853,2.82 V 0.752 Z" />
      </g>
      <g
         transform="matrix(7.9402443,0,0,7.9402443,-412.71077,-1357.6784)"
         id="g541">
        <path
           inkscape:connector-curvature="0"
           id="path543"
           style="fill:#000000;fill-opacity:1;fill-rule:nonzero;stroke:none"
           d="m 0,0 v -33.355 l -0.543,0.244 v 32.957 z" />
      </g>
      <g
         transform="matrix(7.9402443,0,0,7.9402443,-418.36661,-1624.5047)"
         id="g545">
        <path
           inkscape:connector-curvature="0"
           id="path547"
           style="fill:#000000;fill-opacity:1;fill-rule:nonzero;stroke:none"
           d="m 0,0 v -2.14 l -0.587,0.229 v 2.177 z" />
      </g>
      <g
         transform="matrix(7.9402443,0,0,7.9402443,-673.79236,-1427.1881)"
         id="g549">
        <path
           inkscape:connector-curvature="0"
           id="path551"
           style="fill:#000000;fill-opacity:1;fill-rule:nonzero;stroke:none"
           d="M 0,0 0.186,-1.778 -0.345,-1.964 -0.54,-0.157 Z" />
      </g>
      <g
         transform="matrix(7.9402443,0,0,7.9402443,-668.6709,-1446.0795)"
         id="g553">
        <path
           inkscape:connector-curvature="0"
           id="path555"
           style="fill:#000000;fill-opacity:1;fill-rule:nonzero;stroke:none"
           d="m 0,0 0.516,0.194 1.285,-13.454 -0.54,0.18 z" />
      </g>
      <g
         transform="matrix(7.9402443,0,0,7.9402443,-609.8591,-1405.4818)"
         id="g557">
        <path
           inkscape:connector-curvature="0"
           id="path559"
           style="fill:#000000;fill-opacity:1;fill-rule:nonzero;stroke:none"
           d="m 0,0 -0.54,-0.216 -0.039,-0.928 0.345,-4.007 z" />
      </g>
      <g
         transform="matrix(7.9402443,0,0,7.9402443,-580.28169,-1415.7581)"
         id="g561">
        <path
           inkscape:connector-curvature="0"
           id="path563"
           style="fill:#000000;fill-opacity:1;fill-rule:nonzero;stroke:none"
           d="m 0,0 0.536,0.184 v -18.767 l -0.54,0.222 z" />
      </g>
      <g
         transform="matrix(7.9402443,0,0,7.9402443,-582.64709,-1565.1506)"
         id="g565">
        <path
           inkscape:connector-curvature="0"
           id="path567"
           style="fill:#000000;fill-opacity:1;fill-rule:nonzero;stroke:none"
           d="m 0,0 -0.548,0.244 v -1.795 l 0.541,-0.25 z" />
      </g>
      <g
         transform="matrix(7.9402443,0,0,7.9402443,-536.5373,-1433.819)"
         id="g569">
        <path
           inkscape:connector-curvature="0"
           id="path571"
           style="fill:#000000;fill-opacity:1;fill-rule:nonzero;stroke:none"
           d="M 0,0 V 4.109 L 0.542,4.305 V -0.817 L 2.274,-1.576 V -2.055 L 0,-1.148 Z" />
      </g>
      <g
         transform="matrix(7.9402443,0,0,7.9402443,-538.68196,-1468.9791)"
         id="g573">
        <path
           inkscape:connector-curvature="0"
           id="path575"
           style="fill:#000000;fill-opacity:1;fill-rule:nonzero;stroke:none"
           d="m 0,0 v -1.191 h -0.546 v 1.185 z" />
      </g>
      <path
         inkscape:connector-curvature="0"
         id="path577"
         style="fill:#000000;fill-opacity:1;fill-rule:nonzero;stroke:none;stroke-width:7.9402442"
         d="m -542.85297,-1503.5295 h 4.16863 v -9.5283 h -4.16863 z" />
      <g
         transform="matrix(7.9402443,0,0,7.9402443,-536.41819,-1533.1181)"
         id="g579">
        <path
           inkscape:connector-curvature="0"
           id="path581"
           style="fill:#000000;fill-opacity:1;fill-rule:nonzero;stroke:none"
           d="m 0,0 v -5.781 l 0.527,-0.17 v 5.63 l 1.739,0.755 v 0.472 z" />
      </g>
      <g
         transform="matrix(7.9402443,0,0,7.9402443,-467.83116,-1382.3662)"
         id="g583">
        <path
           inkscape:connector-curvature="0"
           id="path585"
           style="fill:#000000;fill-opacity:1;fill-rule:nonzero;stroke:none"
           d="m 0,0 v -7.282 l 2.566,-1.067 v 0.543 L 0.594,-6.921 V 0.286 C 0.594,0.391 0.634,0.67 0.27,0.592 -0.105,0.513 -0.195,0.475 -0.195,0.475 -0.135,0.475 0,0.356 0,0" />
      </g>
      <g
         transform="matrix(7.9402443,0,0,7.9402443,-499.16971,-1525.2636)"
         id="g587">
        <path
           inkscape:connector-curvature="0"
           id="path589"
           style="fill:#000000;fill-opacity:1;fill-rule:nonzero;stroke:none"
           d="M 0,0 -0.033,-9.97 C -0.06,-10.791 0.045,-11.247 1.08,-11.703 0.93,-11.572 0.33,-11 0.51,-10.01 l 0.03,9.593 z" />
      </g>
      <g
         transform="matrix(7.9402443,0,0,7.9402443,-463.54263,-1604.8629)"
         id="g591">
        <path
           inkscape:connector-curvature="0"
           id="path593"
           style="fill:#000000;fill-opacity:1;fill-rule:nonzero;stroke:none"
           d="m 0,0 c 0.03,0.13 -0.015,9.57 -0.015,10.01 0,0.886 -0.24,1.042 -0.405,1.354 -0.165,0.339 -2.942,5.524 -3.483,6.384 -0.593,0.945 -0.953,1.648 -0.953,2.806 v 8.266 c -0.03,1.302 1.11,1.445 1.194,1.467 -0.705,-0.352 -0.609,-1.362 -0.639,-1.48 v -8.266 c 0.015,-1.119 0.51,-1.991 0.93,-2.59 L 0.127,11.507 C 0.304,11.206 0.54,10.788 0.54,10.284 V -0.234 c 0,-0.117 0.105,-0.404 -0.3,-0.289 -0.475,0.134 -0.315,0.132 -0.315,0.132 0,0 0.081,-0.061 0.075,0.391" />
      </g>
      <g
         transform="matrix(7.9402443,0,0,7.9402443,-363.29069,-1636.8907)"
         id="g595">
        <path
           inkscape:connector-curvature="0"
           id="path597"
           style="fill:#000000;fill-opacity:1;fill-rule:nonzero;stroke:none"
           d="M 0,0 -0.54,-0.187 V 1.576 L 0,1.819 Z" />
      </g>
      <g
         transform="matrix(7.9402443,0,0,7.9402443,-316.97922,-1535.1524)"
         id="g599">
        <path
           inkscape:connector-curvature="0"
           id="path601"
           style="fill:#000000;fill-opacity:1;fill-rule:nonzero;stroke:none"
           d="m 0,0 -0.005,-8.192 -0.54,-0.217 V 0 Z" />
      </g>
      <g
         transform="matrix(7.9402443,0,0,7.9402443,-321.26854,-1445.7984)"
         id="g603">
        <path
           inkscape:connector-curvature="0"
           id="path605"
           style="fill:#000000;fill-opacity:1;fill-rule:nonzero;stroke:none"
           d="M 0,0 0.01,8.438 0.551,8.259 V 0 Z" />
      </g>
      <g
         transform="matrix(7.9402443,0,0,7.9402443,-327.76366,-1468.552)"
         id="g607">
        <path
           inkscape:connector-curvature="0"
           id="path609"
           style="fill:#000000;fill-opacity:1;fill-rule:nonzero;stroke:none"
           d="M 0,0 H 0.54 V -1.266 H 0.003 Z" />
      </g>
      <g
         transform="matrix(7.9402443,0,0,7.9402443,-327.76366,-1503.4073)"
         id="g611">
        <path
           inkscape:connector-curvature="0"
           id="path613"
           style="fill:#000000;fill-opacity:1;fill-rule:nonzero;stroke:none"
           d="M 0,0 H 0.54 V -1.215 H 0.003 Z" />
      </g>
      <g
         transform="matrix(7.9402443,0,0,7.9402443,-283.14187,-1394.5981)"
         id="g615">
        <path
           inkscape:connector-curvature="0"
           id="path617"
           style="fill:#000000;fill-opacity:1;fill-rule:nonzero;stroke:none"
           d="m 0,0 0.525,-0.187 v -23.805 l -0.536,-0.191 z" />
      </g>
      <g
         transform="matrix(7.9402443,0,0,7.9402443,-208.63776,-1397.8139)"
         id="g619">
        <path
           inkscape:connector-curvature="0"
           id="path621"
           style="fill:#000000;fill-opacity:1;fill-rule:nonzero;stroke:none"
           d="m 0,0 v -2.063 l -0.54,0.149 v 2.1 z" />
      </g>
      <g
         transform="matrix(7.9402443,0,0,7.9402443,-200.78804,-1555.4913)"
         id="g623">
        <path
           inkscape:connector-curvature="0"
           id="path625"
           style="fill:#000000;fill-opacity:1;fill-rule:nonzero;stroke:none"
           d="M 0,0 -0.51,-0.229 -0.54,17.085 0.001,16.931 Z" />
      </g>
      <g
         transform="matrix(7.9402443,0,0,7.9402443,-208.63776,-1562.5351)"
         id="g627">
        <path
           inkscape:connector-curvature="0"
           id="path629"
           style="fill:#000000;fill-opacity:1;fill-rule:nonzero;stroke:none"
           d="m 0,0 v -1.904 l -0.54,-0.22 v 1.938 z" />
      </g>
      <g
         transform="matrix(7.9402443,0,0,7.9402443,-171.59255,-1502.7212)"
         id="g631">
        <path
           inkscape:connector-curvature="0"
           id="path633"
           style="fill:#000000;fill-opacity:1;fill-rule:nonzero;stroke:none"
           d="m 0,0 v -2.042 l 1.251,-5.054 0.52,0.233 z" />
      </g>
      <g
         transform="matrix(7.9402443,0,0,7.9402443,-286.47518,-1591.4796)"
         id="g635">
        <path
           inkscape:connector-curvature="0"
           id="path637"
           style="fill:#000000;fill-opacity:1;fill-rule:nonzero;stroke:none"
           d="m 0,0 v -1.904 l -0.54,-0.22 v 1.938 z" />
      </g>
      <g
         transform="matrix(7.9402443,0,0,7.9402443,-360.99279,-1364.5387)"
         id="g639">
        <path
           inkscape:connector-curvature="0"
           id="path641"
           style="fill:#000000;fill-opacity:1;fill-rule:nonzero;stroke:none"
           d="m 0,0 0.525,-0.187 v -31.44 l -0.536,-0.192 z" />
      </g>
      <g
         transform="translate(1.5,-1.5)"
         style="fill:#000000"
         id="g1620">
        <g
           style="fill:#000000;stroke:none"
           transform="matrix(7.9402443,0,0,7.9402443,-612.99708,-1635.9045)"
           id="g1582">
          <path
             inkscape:connector-curvature="0"
             id="path1580"
             style="fill:#000000;fill-opacity:1;fill-rule:nonzero;stroke:none"
             d="M 0,0 0.342,0.193 C 0.715,0.402 0.777,0.663 0.667,0.858 0.495,1.164 0.281,1.172 -0.049,0.987 l -2.236,-1.259 c -0.329,-0.186 -0.433,-0.373 -0.261,-0.679 0.154,-0.275 0.365,-0.277 0.652,-0.115 l 0.532,0.299 0.426,-0.758 -0.507,-0.285 c -0.623,-0.351 -1.337,-0.27 -1.763,0.488 -0.447,0.794 -0.147,1.446 0.477,1.797 l 2.272,1.279 C 0.167,2.105 0.88,2.024 1.327,1.23 1.754,0.472 1.41,-0.204 0.75,-0.575 L 0.427,-0.758 Z" />
        </g>
        <g
           style="fill:#000000;stroke:none"
           transform="matrix(7.9402443,0,0,7.9402443,-586.39965,-1671.526)"
           id="g1586">
          <path
             inkscape:connector-curvature="0"
             id="path1584"
             style="fill:#000000;fill-opacity:1;fill-rule:nonzero;stroke:none"
             d="M 0,0 C 0.523,0.488 1.236,0.577 1.857,-0.09 2.479,-0.757 2.34,-1.462 1.817,-1.949 l -1.908,-1.778 c -0.524,-0.488 -1.236,-0.577 -1.858,0.09 -0.621,0.666 -0.482,1.371 0.041,1.859 z m -1.3,-2.4 c -0.277,-0.258 -0.334,-0.465 -0.095,-0.721 0.239,-0.257 0.449,-0.214 0.726,0.044 l 1.877,1.75 c 0.277,0.258 0.334,0.464 0.095,0.721 C 1.064,-0.35 0.854,-0.392 0.577,-0.65 Z" />
        </g>
        <g
           style="fill:#000000;stroke:none"
           transform="matrix(7.9402443,0,0,7.9402443,-560.05312,-1737.4793)"
           id="g1590">
          <path
             inkscape:connector-curvature="0"
             id="path1588"
             style="fill:#000000;fill-opacity:1;fill-rule:nonzero;stroke:none"
             d="M 0,0 2.787,4.224 3.46,3.78 2.749,0.781 2.761,0.773 4.355,3.19 5.011,2.757 2.223,-1.467 1.591,-1.05 2.408,2.199 2.396,2.206 0.655,-0.432 Z" />
        </g>
        <g
           style="fill:#000000;stroke:none"
           transform="matrix(7.9402443,0,0,7.9402443,-502.41568,-1769.0974)"
           id="g1594">
          <path
             inkscape:connector-curvature="0"
             id="path1592"
             style="fill:#000000;fill-opacity:1;fill-rule:nonzero;stroke:none"
             d="M 0,0 1.737,4.754 4.015,3.922 3.755,3.211 2.293,3.745 1.846,2.52 2.939,2.121 2.679,1.41 1.586,1.809 0.816,-0.298 Z" />
        </g>
        <g
           style="fill:#000000;stroke:none"
           transform="matrix(7.9402443,0,0,7.9402443,-442.91229,-1787.2916)"
           id="g1598">
          <path
             inkscape:connector-curvature="0"
             id="path1596"
             style="fill:#000000;fill-opacity:1;fill-rule:nonzero;stroke:none"
             d="M 0,0 0.621,5.023 2.931,4.738 2.838,3.986 1.391,4.165 1.231,2.871 2.344,2.734 2.251,1.982 1.138,2.12 0.956,0.645 2.5,0.454 2.407,-0.298 Z" />
        </g>
        <g
           style="fill:#000000;stroke:none"
           transform="matrix(7.9402443,0,0,7.9402443,-372.70544,-1789.2823)"
           id="g1602">
          <path
             inkscape:connector-curvature="0"
             id="path1600"
             style="fill:#000000;fill-opacity:1;fill-rule:nonzero;stroke:none"
             d="m 0,0 -0.864,-0.093 -0.543,5.032 1.213,0.13 C 0.775,5.174 1.314,4.816 1.429,3.743 1.517,2.934 1.238,2.573 0.96,2.409 L 1.937,0.209 1.059,0.114 0.221,2.132 C 0.111,2.106 -0.069,2.079 -0.222,2.063 Z M -0.299,2.774 0.007,2.807 C 0.474,2.857 0.63,3.05 0.565,3.65 0.501,4.249 0.308,4.404 -0.159,4.354 L -0.466,4.321 Z" />
        </g>
        <g
           style="fill:#000000;stroke:none"
           transform="matrix(7.9402443,0,0,7.9402443,-313.82218,-1776.5096)"
           id="g1606">
          <path
             inkscape:connector-curvature="0"
             id="path1604"
             style="fill:#000000;fill-opacity:1;fill-rule:nonzero;stroke:none"
             d="M 0,0 -1.689,4.771 0.505,5.548 0.758,4.834 -0.617,4.348 -0.182,3.119 0.876,3.493 1.128,2.779 0.071,2.405 0.567,1.004 2.034,1.523 2.287,0.809 Z" />
        </g>
        <g
           style="fill:#000000;stroke:none"
           transform="matrix(7.9402443,0,0,7.9402443,-257.79581,-1749.3341)"
           id="g1610">
          <path
             inkscape:connector-curvature="0"
             id="path1608"
             style="fill:#000000;fill-opacity:1;fill-rule:nonzero;stroke:none"
             d="M 0,0 -2.748,4.25 -2.071,4.688 0.39,2.832 0.402,2.839 -1.171,5.271 -0.511,5.697 2.237,1.446 1.601,1.035 -1.046,3.089 -1.057,3.081 0.659,0.426 Z" />
        </g>
        <g
           style="fill:#000000;stroke:none"
           transform="matrix(7.9402443,0,0,7.9402443,-213.41858,-1679.9379)"
           id="g1614">
          <path
             inkscape:connector-curvature="0"
             id="path1612"
             style="fill:#000000;fill-opacity:1;fill-rule:nonzero;stroke:none"
             d="m 0,0 -0.285,0.27 c -0.31,0.295 -0.577,0.278 -0.731,0.116 -0.242,-0.254 -0.187,-0.461 0.087,-0.722 l 1.86,-1.767 c 0.275,-0.261 0.484,-0.305 0.725,-0.051 0.218,0.228 0.158,0.43 -0.081,0.657 l -0.442,0.42 0.599,0.63 0.422,-0.401 C 2.672,-1.34 2.804,-2.046 2.205,-2.676 1.577,-3.336 0.866,-3.24 0.348,-2.748 l -1.891,1.796 c -0.518,0.493 -0.65,1.199 -0.022,1.859 0.599,0.63 1.346,0.5 1.894,-0.021 L 0.599,0.63 Z" />
        </g>
        <g
           style="fill:#000000;stroke:none"
           transform="matrix(7.9402443,0,0,7.9402443,-165.8724,-1659.279)"
           id="g1618">
          <path
             inkscape:connector-curvature="0"
             id="path1616"
             style="fill:#000000;fill-opacity:1;fill-rule:nonzero;stroke:none"
             d="M 0,0 -4.372,2.553 -3.198,4.563 -2.544,4.181 -3.28,2.922 -2.153,2.264 -1.588,3.233 -0.934,2.851 -1.499,1.882 -0.216,1.133 0.569,2.477 1.223,2.095 Z" />
        </g>
      </g>
      <g
         id="g1578">
        <g
           id="g643"
           transform="matrix(7.9402443,0,0,7.9402443,-612.99708,-1635.9045)"
           style="fill:#ffffff;stroke:none">
          <path
             d="M 0,0 0.342,0.193 C 0.715,0.402 0.777,0.663 0.667,0.858 0.495,1.164 0.281,1.172 -0.049,0.987 l -2.236,-1.259 c -0.329,-0.186 -0.433,-0.373 -0.261,-0.679 0.154,-0.275 0.365,-0.277 0.652,-0.115 l 0.532,0.299 0.426,-0.758 -0.507,-0.285 c -0.623,-0.351 -1.337,-0.27 -1.763,0.488 -0.447,0.794 -0.147,1.446 0.477,1.797 l 2.272,1.279 C 0.167,2.105 0.88,2.024 1.327,1.23 1.754,0.472 1.41,-0.204 0.75,-0.575 L 0.427,-0.758 Z"
             style="fill:#ffffff;fill-opacity:1;fill-rule:nonzero;stroke:none"
             id="path645"
             inkscape:connector-curvature="0" />
        </g>
        <g
           id="g647"
           transform="matrix(7.9402443,0,0,7.9402443,-586.39965,-1671.526)"
           style="fill:#ffffff;stroke:none">
          <path
             d="M 0,0 C 0.523,0.488 1.236,0.577 1.857,-0.09 2.479,-0.757 2.34,-1.462 1.817,-1.949 l -1.908,-1.778 c -0.524,-0.488 -1.236,-0.577 -1.858,0.09 -0.621,0.666 -0.482,1.371 0.041,1.859 z m -1.3,-2.4 c -0.277,-0.258 -0.334,-0.465 -0.095,-0.721 0.239,-0.257 0.449,-0.214 0.726,0.044 l 1.877,1.75 c 0.277,0.258 0.334,0.464 0.095,0.721 C 1.064,-0.35 0.854,-0.392 0.577,-0.65 Z"
             style="fill:#ffffff;fill-opacity:1;fill-rule:nonzero;stroke:none"
             id="path649"
             inkscape:connector-curvature="0" />
        </g>
        <g
           id="g651"
           transform="matrix(7.9402443,0,0,7.9402443,-560.05312,-1737.4793)"
           style="fill:#ffffff;stroke:none">
          <path
             d="M 0,0 2.787,4.224 3.46,3.78 2.749,0.781 2.761,0.773 4.355,3.19 5.011,2.757 2.223,-1.467 1.591,-1.05 2.408,2.199 2.396,2.206 0.655,-0.432 Z"
             style="fill:#ffffff;fill-opacity:1;fill-rule:nonzero;stroke:none"
             id="path653"
             inkscape:connector-curvature="0" />
        </g>
        <g
           id="g655"
           transform="matrix(7.9402443,0,0,7.9402443,-502.41568,-1769.0974)"
           style="fill:#ffffff;stroke:none">
          <path
             d="M 0,0 1.737,4.754 4.015,3.922 3.755,3.211 2.293,3.745 1.846,2.52 2.939,2.121 2.679,1.41 1.586,1.809 0.816,-0.298 Z"
             style="fill:#ffffff;fill-opacity:1;fill-rule:nonzero;stroke:none"
             id="path657"
             inkscape:connector-curvature="0" />
        </g>
        <g
           id="g659"
           transform="matrix(7.9402443,0,0,7.9402443,-442.91229,-1787.2916)"
           style="fill:#ffffff;stroke:none">
          <path
             d="M 0,0 0.621,5.023 2.931,4.738 2.838,3.986 1.391,4.165 1.231,2.871 2.344,2.734 2.251,1.982 1.138,2.12 0.956,0.645 2.5,0.454 2.407,-0.298 Z"
             style="fill:#ffffff;fill-opacity:1;fill-rule:nonzero;stroke:none"
             id="path661"
             inkscape:connector-curvature="0" />
        </g>
        <g
           id="g663"
           transform="matrix(7.9402443,0,0,7.9402443,-372.70544,-1789.2823)"
           style="fill:#ffffff;stroke:none">
          <path
             d="m 0,0 -0.864,-0.093 -0.543,5.032 1.213,0.13 C 0.775,5.174 1.314,4.816 1.429,3.743 1.517,2.934 1.238,2.573 0.96,2.409 L 1.937,0.209 1.059,0.114 0.221,2.132 C 0.111,2.106 -0.069,2.079 -0.222,2.063 Z M -0.299,2.774 0.007,2.807 C 0.474,2.857 0.63,3.05 0.565,3.65 0.501,4.249 0.308,4.404 -0.159,4.354 L -0.466,4.321 Z"
             style="fill:#ffffff;fill-opacity:1;fill-rule:nonzero;stroke:none"
             id="path665"
             inkscape:connector-curvature="0" />
        </g>
        <g
           id="g667"
           transform="matrix(7.9402443,0,0,7.9402443,-313.82218,-1776.5096)"
           style="fill:#ffffff;stroke:none">
          <path
             d="M 0,0 -1.689,4.771 0.505,5.548 0.758,4.834 -0.617,4.348 -0.182,3.119 0.876,3.493 1.128,2.779 0.071,2.405 0.567,1.004 2.034,1.523 2.287,0.809 Z"
             style="fill:#ffffff;fill-opacity:1;fill-rule:nonzero;stroke:none"
             id="path669"
             inkscape:connector-curvature="0" />
        </g>
        <g
           id="g671"
           transform="matrix(7.9402443,0,0,7.9402443,-257.79581,-1749.3341)"
           style="fill:#ffffff;stroke:none">
          <path
             d="M 0,0 -2.748,4.25 -2.071,4.688 0.39,2.832 0.402,2.839 -1.171,5.271 -0.511,5.697 2.237,1.446 1.601,1.035 -1.046,3.089 -1.057,3.081 0.659,0.426 Z"
             style="fill:#ffffff;fill-opacity:1;fill-rule:nonzero;stroke:none"
             id="path673"
             inkscape:connector-curvature="0" />
        </g>
        <g
           id="g675"
           transform="matrix(7.9402443,0,0,7.9402443,-213.41858,-1679.9379)"
           style="fill:#ffffff;stroke:none">
          <path
             d="m 0,0 -0.285,0.27 c -0.31,0.295 -0.577,0.278 -0.731,0.116 -0.242,-0.254 -0.187,-0.461 0.087,-0.722 l 1.86,-1.767 c 0.275,-0.261 0.484,-0.305 0.725,-0.051 0.218,0.228 0.158,0.43 -0.081,0.657 l -0.442,0.42 0.599,0.63 0.422,-0.401 C 2.672,-1.34 2.804,-2.046 2.205,-2.676 1.577,-3.336 0.866,-3.24 0.348,-2.748 l -1.891,1.796 c -0.518,0.493 -0.65,1.199 -0.022,1.859 0.599,0.63 1.346,0.5 1.894,-0.021 L 0.599,0.63 Z"
             style="fill:#ffffff;fill-opacity:1;fill-rule:nonzero;stroke:none"
             id="path677"
             inkscape:connector-curvature="0" />
        </g>
        <g
           id="g679"
           transform="matrix(7.9402443,0,0,7.9402443,-165.8724,-1659.279)"
           style="fill:#ffffff;stroke:none">
          <path
             d="M 0,0 -4.372,2.553 -3.198,4.563 -2.544,4.181 -3.28,2.922 -2.153,2.264 -1.588,3.233 -0.934,2.851 -1.499,1.882 -0.216,1.133 0.569,2.477 1.223,2.095 Z"
             style="fill:#ffffff;fill-opacity:1;fill-rule:nonzero;stroke:none"
             id="path681"
             inkscape:connector-curvature="0" />
        </g>
      </g>
    </g>
  </g>
</svg>
