<svg width="264" height="332" viewBox="0 0 264 332" fill="none" xmlns="http://www.w3.org/2000/svg">
<path d="M177.987 222.954C204.694 210.736 215.499 201.431 224.539 178.816V37.4879H44.9078V178.816C52.1926 199.697 61.7134 209.617 91.9662 222.954" stroke="#616161" stroke-width="8"/>
<path d="M189.43 133.181H80.0171C77.3529 133.181 75.1945 135.346 75.1945 138.025C75.1945 140.702 77.3529 142.87 80.0171 142.87H189.43C192.092 142.87 194.253 140.701 194.253 138.025C194.253 135.346 192.092 133.181 189.43 133.181Z" fill="#616161"/>
<path d="M177.09 147.916C171.297 151.524 162.877 156.994 153.707 164.237C152.683 163.186 151.665 162.157 150.672 161.188C144.769 155.454 139.474 151.138 135.29 148.578L134.154 147.851L132.99 148.578C128.804 151.138 123.512 155.454 117.609 161.188C116.611 162.163 115.587 163.163 114.563 164.22C105.409 156.991 97.0045 151.536 91.219 147.927C90.9883 147.308 90.7805 146.754 90.5837 146.237H81.2377C82.0325 148.112 88.1249 163.296 93.2881 185.436C93.6065 186.775 93.9243 188.144 94.2427 189.511C94.4464 190.471 94.6484 191.432 94.8524 192.42C95.0826 193.469 95.2865 194.543 95.5184 195.62C98.0372 208.307 100.035 222.681 100.587 237.752L109.276 237.431C109.218 235.541 109.102 233.709 108.986 231.873C108.956 231.845 108.956 231.845 108.986 231.845C108.951 231.254 108.89 230.697 108.85 230.111C111.335 222.582 114.689 215.501 118.677 208.92C118.682 208.926 118.686 208.932 118.69 208.935C123.207 213.751 127.531 218.953 131.465 224.608C128.877 228.52 126.495 232.635 124.34 236.916H129.366C130.865 234.095 132.438 231.325 134.155 228.671C135.872 231.325 137.444 234.095 138.943 236.916H143.955C141.805 232.635 139.429 228.52 136.841 224.608C140.777 218.953 145.1 213.751 149.589 208.935C149.595 208.926 149.603 208.92 149.609 208.915C153.591 215.487 156.946 222.562 159.429 230.08C159.392 230.657 159.33 231.208 159.296 231.788C159.18 233.649 159.064 235.541 159.005 237.431L167.694 237.752C168.274 222.681 170.27 208.364 172.762 195.68V195.651C172.994 194.543 173.226 193.469 173.427 192.421C173.631 191.432 173.862 190.471 174.066 189.511C174.355 188.113 174.674 186.775 174.991 185.437C176.006 180.987 177.078 176.824 178.15 173.014C180.467 164.663 182.724 157.884 184.404 153.198C185.244 150.843 185.94 149.038 186.403 147.817C186.664 147.206 186.839 146.74 186.952 146.45L187.042 146.237H177.715C177.522 146.751 177.316 147.299 177.09 147.916ZM118.025 167.007C118.939 166.089 119.827 165.223 120.685 164.39C125.867 159.353 130.552 155.508 134.154 153.116C137.756 155.508 142.439 159.353 147.595 164.39C148.452 165.22 149.334 166.11 150.245 167.027C147.241 169.502 144.184 172.153 141.133 174.994C138.789 177.179 136.452 179.487 134.145 181.887C131.836 179.487 129.5 177.179 127.155 174.994C124.098 172.147 121.035 169.491 118.024 167.01L118.025 167.007ZM94.9666 158.844V158.815C94.4887 157.358 94.0345 156.002 93.6018 154.718C98.6776 158.009 104.869 162.256 111.482 167.453C108.546 170.573 105.553 173.971 102.533 177.64C101.981 178.324 101.425 179.057 100.869 179.753C98.8838 171.664 96.8052 164.581 94.9666 158.844ZM107.989 220.007C107.286 213.455 106.399 207.136 105.365 201.121C105.009 199.089 104.637 197.109 104.248 195.151C105.035 195.827 105.821 196.481 106.608 197.185C107.827 198.271 109.075 199.385 110.294 200.527C112.033 202.164 113.775 203.857 115.517 205.605C112.695 210.159 110.184 214.978 107.989 220.007ZM117.967 201.805C116.416 200.243 114.864 198.714 113.285 197.268C110.625 194.762 107.938 192.426 105.304 190.227C104.469 189.514 103.644 188.877 102.816 188.21C102.685 187.621 102.571 187.008 102.439 186.428C102.349 186.016 102.253 185.638 102.162 185.235C102.202 185.181 102.244 185.127 102.284 185.073C102.784 184.408 103.311 183.766 103.808 183.126C107.578 178.421 111.316 174.08 114.946 170.238C117.978 172.727 121.064 175.392 124.14 178.259C126.482 180.439 128.812 182.74 131.105 185.133C126.451 190.244 121.992 195.802 117.967 201.805ZM134.154 220.709C130.108 215.086 125.701 209.853 121.156 205.065C121.149 205.056 121.142 205.051 121.135 205.045C125.086 199.058 129.507 193.506 134.144 188.392C138.779 193.503 143.199 199.052 147.148 205.037C142.604 209.853 138.199 215.058 134.154 220.709ZM162.916 201.149C161.881 207.159 160.996 213.472 160.295 219.993C158.102 214.972 155.596 210.162 152.779 205.616C154.525 203.863 156.27 202.169 158.015 200.527C159.234 199.385 160.453 198.271 161.675 197.211C162.461 196.509 163.244 195.85 164.028 195.177C163.649 197.137 163.27 199.1 162.916 201.149ZM165.841 186.456C165.711 187.019 165.598 187.633 165.471 188.207C164.639 188.878 163.813 189.531 162.976 190.227C160.343 192.452 157.655 194.79 154.994 197.268C153.416 198.717 151.863 200.246 150.31 201.777L150.307 201.783C146.286 195.788 141.831 190.236 137.184 185.133C139.479 182.74 141.807 180.439 144.149 178.26C147.225 175.395 150.307 172.73 153.337 170.241C156.937 174.085 160.705 178.424 164.472 183.155C165.027 183.843 165.572 184.559 166.118 185.267C166.028 185.669 165.932 186.05 165.841 186.456ZM173.311 158.815V158.844C171.478 164.601 169.402 171.673 167.419 179.774C166.865 179.083 166.316 178.37 165.748 177.696C162.755 174.025 159.74 170.604 156.801 167.459C163.414 162.259 169.606 158.014 174.682 154.718C174.244 156.002 173.789 157.36 173.311 158.815Z" fill="#616161"/>
<path d="M165.272 246.617L172.903 282.171L164.397 284.385L156.767 248.831L165.272 246.617Z" fill="#616161"/>
<path d="M60.2403 227.685L37.1538 255.78L31.8714 250.516L34.9452 224.086L34.7817 223.923L21.4574 240.138L15.2316 233.935L38.3181 205.839L43.676 211.179L40.5115 237.468L40.7253 237.681L54.0271 221.493L60.2403 227.685Z" fill="#616161"/>
<path d="M51.1598 263.873L66.4504 230.88L79.6692 238.309C82.0426 239.643 83.8672 241.109 85.1431 242.706C86.4294 244.308 87.1838 245.964 87.4063 247.673C87.6391 249.388 87.3723 251.072 86.6058 252.726C86.0234 253.983 85.2504 254.963 84.2869 255.667C83.3283 256.36 82.256 256.779 81.0699 256.925C79.8838 257.071 78.648 256.945 77.3625 256.547L77.2132 256.869C78.4629 257.653 79.4777 258.677 80.2575 259.941C81.0477 261.211 81.5018 262.616 81.6196 264.158C81.7425 265.689 81.4356 267.25 80.6989 268.839C79.8777 270.611 78.7101 271.952 77.1962 272.861C75.6873 273.759 73.9259 274.15 71.9118 274.033C69.9028 273.906 67.727 273.184 65.3846 271.867L51.1598 263.873ZM61.8007 261.751L66.5371 264.413C68.1985 265.347 69.5731 265.706 70.661 265.492C71.7592 265.283 72.5795 264.594 73.1221 263.423C73.5153 262.575 73.6629 261.737 73.5648 260.91C73.4717 260.073 73.1514 259.291 72.604 258.563C72.0616 257.825 71.3002 257.181 70.3199 256.63L65.4442 253.89L61.8007 261.751ZM67.8259 248.751L72.067 251.134C72.9028 251.604 73.713 251.876 74.4975 251.952C75.282 252.027 75.9817 251.893 76.5968 251.548C77.2221 251.209 77.7139 250.653 78.0723 249.88C78.585 248.773 78.6115 247.692 78.1519 246.635C77.6923 245.578 76.8227 244.69 75.5431 243.971L71.1782 241.517L67.8259 248.751Z" fill="#616161"/>
<path d="M95.5119 283.422L86.3224 281.235L105.26 248.392L116.643 251.101L121.577 289.625L112.388 287.438L109.317 258.768L109.041 258.702L95.5119 283.422ZM97.0411 269.087L116.249 273.658L114.964 280.209L95.7556 275.638L97.0411 269.087Z" fill="#616161"/>
<path d="M199.039 244.896C198.576 244.295 198.063 243.819 197.497 243.466C196.928 243.103 196.312 242.861 195.651 242.742C194.99 242.622 194.292 242.631 193.559 242.771C192.82 242.9 192.059 243.159 191.274 243.549C189.694 244.332 188.488 245.405 187.655 246.768C186.832 248.125 186.417 249.714 186.41 251.537C186.399 253.348 186.832 255.327 187.71 257.475C188.593 259.633 189.648 261.323 190.876 262.547C192.103 263.77 193.453 264.497 194.926 264.729C196.398 264.96 197.951 264.671 199.584 263.861C201.026 263.145 202.147 262.299 202.946 261.323C203.752 260.33 204.231 259.256 204.383 258.1C204.535 256.943 204.362 255.757 203.865 254.541L205.402 253.996L197.481 257.926L195.054 251.993L209.099 245.025L210.921 249.479C212.153 252.492 212.589 255.38 212.226 258.143C211.875 260.9 210.853 263.391 209.16 265.614C207.478 267.832 205.237 269.636 202.438 271.025C199.331 272.566 196.316 273.225 193.392 273.001C190.469 272.778 187.823 271.705 185.455 269.782C183.083 267.849 181.17 265.108 179.718 261.558C178.589 258.797 177.985 256.151 177.906 253.62C177.823 251.078 178.187 248.71 178.998 246.515C179.82 244.315 181.013 242.366 182.576 240.668C184.15 238.965 186.024 237.574 188.198 236.495C190.085 235.559 191.954 234.968 193.805 234.722C195.667 234.47 197.432 234.544 199.1 234.942C200.779 235.335 202.297 236.038 203.655 237.051C205.014 238.064 206.131 239.361 207.008 240.943L199.039 244.896Z" fill="#616161"/>
<path d="M237.162 248.067L230.268 254.524L216.995 217.357L225.535 209.359L256.717 229.751L249.823 236.208L226.962 220.518L226.755 220.712L237.162 248.067ZM227.494 237.602L241.905 224.105L245.986 229.389L231.575 242.886L227.494 237.602Z" fill="#616161"/>
<path d="M132.146 287.399L130.981 251.054L139.764 250.712L140.699 279.923L155.816 279.336L156.044 286.47L132.146 287.399Z" fill="#616161"/>
<path d="M67.5997 11.2692C67.5406 10.6181 67.2772 10.1121 66.8096 9.75107C66.348 9.38411 65.688 9.20064 64.8299 9.20064C64.2617 9.20064 63.7882 9.27462 63.4094 9.42258C63.0306 9.57055 62.7465 9.77474 62.5571 10.0352C62.3677 10.2897 62.2701 10.5826 62.2642 10.9141C62.2523 11.1863 62.3056 11.426 62.424 11.6332C62.5482 11.8403 62.7258 12.0238 62.9566 12.1836C63.1934 12.3375 63.4775 12.4736 63.8089 12.592C64.1403 12.7103 64.5132 12.8139 64.9275 12.9027L66.49 13.2578C67.3896 13.4531 68.1827 13.7135 68.8693 14.0391C69.5617 14.3646 70.1418 14.7522 70.6093 15.2021C71.0828 15.6519 71.4409 16.1697 71.6835 16.7557C71.9262 17.3416 72.0505 17.9986 72.0564 18.7266C72.0505 19.8748 71.7605 20.8602 71.1864 21.6829C70.6123 22.5056 69.7866 23.1359 68.7095 23.5739C67.6382 24.0118 66.345 24.2308 64.8299 24.2308C63.3088 24.2308 61.983 24.003 60.8526 23.5472C59.7221 23.0915 58.8432 22.399 58.2159 21.4698C57.5885 20.5406 57.2659 19.3658 57.2482 17.9453H61.4563C61.4918 18.5312 61.6486 19.0195 61.9268 19.4102C62.205 19.8008 62.5867 20.0967 63.072 20.2979C63.5633 20.4992 64.1315 20.5998 64.7766 20.5998C65.3684 20.5998 65.8715 20.5199 66.2858 20.3601C66.706 20.2003 67.0286 19.9783 67.2535 19.6942C67.4784 19.4102 67.5938 19.0846 67.5997 18.7177C67.5938 18.3744 67.4873 18.0814 67.2801 17.8388C67.073 17.5902 66.7534 17.3771 66.3213 17.1996C65.8952 17.0161 65.3507 16.8474 64.6878 16.6935L62.7879 16.2496C61.2136 15.8886 59.9737 15.3056 59.0681 14.5007C58.1626 13.6899 57.7128 12.5949 57.7187 11.2159C57.7128 10.0914 58.0146 9.10594 58.6242 8.25959C59.2339 7.41323 60.0772 6.75331 61.1544 6.27983C62.2316 5.80634 63.4597 5.5696 64.8387 5.5696C66.2473 5.5696 67.4695 5.8093 68.5053 6.28871C69.5469 6.76219 70.3548 7.42803 70.9289 8.28622C71.503 9.14441 71.796 10.1387 71.8078 11.2692H67.5997ZM78.6704 5.81818V24H74.2759V5.81818H78.6704ZM96.9033 5.81818V24H93.1746L85.9391 13.5064H85.8237V24H81.4292V5.81818H85.2112L92.3667 16.294H92.5176V5.81818H96.9033ZM116.17 12.4055H111.731C111.672 11.9498 111.551 11.5385 111.367 11.1715C111.184 10.8046 110.941 10.4909 110.64 10.2305C110.338 9.97005 109.98 9.77178 109.565 9.63565C109.157 9.49361 108.704 9.42258 108.207 9.42258C107.325 9.42258 106.565 9.63861 105.925 10.0707C105.292 10.5027 104.804 11.1271 104.461 11.9439C104.123 12.7607 103.954 13.7491 103.954 14.9091C103.954 16.1165 104.126 17.1286 104.469 17.9453C104.819 18.7562 105.307 19.3687 105.934 19.783C106.568 20.1914 107.316 20.3956 108.18 20.3956C108.666 20.3956 109.107 20.3335 109.503 20.2092C109.906 20.0849 110.258 19.9044 110.56 19.6676C110.867 19.425 111.119 19.132 111.314 18.7887C111.515 18.4395 111.655 18.0459 111.731 17.608L116.17 17.6346C116.093 18.4395 115.86 19.2326 115.469 20.0138C115.084 20.7951 114.555 21.5083 113.88 22.1534C113.205 22.7926 112.383 23.3016 111.412 23.6804C110.447 24.0592 109.34 24.2486 108.092 24.2486C106.446 24.2486 104.972 23.8875 103.67 23.1655C102.374 22.4375 101.35 21.3781 100.599 19.9872C99.847 18.5964 99.4712 16.9036 99.4712 14.9091C99.4712 12.9086 99.8529 11.2129 100.616 9.82209C101.38 8.43123 102.413 7.37476 103.715 6.6527C105.017 5.93063 106.476 5.5696 108.092 5.5696C109.192 5.5696 110.21 5.72348 111.146 6.03125C112.081 6.3331 112.903 6.77699 113.614 7.36293C114.324 7.94294 114.901 8.65613 115.345 9.50249C115.789 10.3488 116.064 11.3165 116.17 12.4055ZM118.685 24V5.81818H131.363V9.38707H123.08V13.1158H130.715V16.6935H123.08V20.4311H131.363V24H118.685ZM139.45 24V20.8395L146.082 15.0334C146.579 14.5836 147.002 14.1722 147.352 13.7994C147.701 13.4206 147.967 13.0418 148.151 12.663C148.334 12.2783 148.426 11.861 148.426 11.4112C148.426 10.9081 148.316 10.479 148.097 10.1239C147.878 9.7629 147.577 9.48473 147.192 9.28942C146.807 9.0941 146.366 8.99645 145.869 8.99645C145.366 8.99645 144.925 9.10002 144.546 9.30717C144.167 9.5084 143.871 9.80137 143.658 10.1861C143.451 10.5708 143.348 11.0384 143.348 11.5888H139.184C139.184 10.3518 139.462 9.2835 140.019 8.38388C140.575 7.48426 141.356 6.79178 142.362 6.30646C143.374 5.81522 144.549 5.5696 145.887 5.5696C147.266 5.5696 148.464 5.80043 149.482 6.26207C150.5 6.72372 151.287 7.36884 151.844 8.19744C152.406 9.02012 152.687 9.97597 152.687 11.065C152.687 11.7575 152.548 12.444 152.27 13.1246C151.992 13.8053 151.492 14.5569 150.77 15.3796C150.053 16.2023 149.035 17.1877 147.716 18.3359L145.541 20.3423V20.4577H152.909V24H139.45ZM162.912 24.4439C161.326 24.4439 159.959 24.0681 158.811 23.3164C157.662 22.5588 156.778 21.4728 156.156 20.0582C155.535 18.6378 155.227 16.9303 155.233 14.9357C155.239 12.9412 155.55 11.2485 156.165 9.8576C156.787 8.46082 157.668 7.39844 158.811 6.67045C159.959 5.93655 161.326 5.5696 162.912 5.5696C164.498 5.5696 165.866 5.93655 167.014 6.67045C168.168 7.39844 169.056 8.46082 169.677 9.8576C170.299 11.2544 170.606 12.9471 170.6 14.9357C170.6 16.9362 170.29 18.6467 169.668 20.0671C169.047 21.4876 168.162 22.5736 167.014 23.3253C165.872 24.071 164.504 24.4439 162.912 24.4439ZM162.912 20.8484C163.859 20.8484 164.626 20.366 165.212 19.4013C165.798 18.4306 166.088 16.9421 166.082 14.9357C166.082 13.6218 165.948 12.5387 165.682 11.6864C165.416 10.8282 165.046 10.189 164.572 9.76882C164.099 9.3486 163.546 9.13849 162.912 9.13849C161.971 9.13849 161.211 9.61494 160.631 10.5678C160.051 11.5148 159.758 12.9708 159.752 14.9357C159.746 16.2674 159.873 17.3712 160.133 18.2472C160.4 19.1231 160.773 19.7771 161.252 20.2092C161.731 20.6353 162.285 20.8484 162.912 20.8484ZM181.525 5.81818V24H177.139V9.91974H177.032L172.966 12.4055V8.60582L177.45 5.81818H181.525ZM192.833 24.2486C191.838 24.2486 190.886 24.0888 189.974 23.7692C189.063 23.4437 188.252 22.9287 187.542 22.2244C186.831 21.5142 186.272 20.585 185.864 19.4368C185.455 18.2827 185.254 16.877 185.26 15.2198C185.266 13.7224 185.449 12.3789 185.81 11.1893C186.171 9.99373 186.686 8.97869 187.355 8.14418C188.03 7.30966 188.835 6.67341 189.77 6.23544C190.711 5.79155 191.762 5.5696 192.922 5.5696C194.194 5.5696 195.316 5.81818 196.286 6.31534C197.263 6.80658 198.044 7.46946 198.63 8.30398C199.216 9.13258 199.562 10.0559 199.669 11.0739H195.345C195.215 10.4998 194.928 10.0647 194.484 9.76882C194.046 9.46697 193.525 9.31605 192.922 9.31605C191.809 9.31605 190.977 9.79841 190.427 10.7631C189.882 11.7279 189.604 13.0181 189.592 14.6339H189.708C189.956 14.0894 190.314 13.6218 190.782 13.2312C191.25 12.8406 191.785 12.5417 192.389 12.3345C192.999 12.1214 193.644 12.0149 194.324 12.0149C195.413 12.0149 196.375 12.2665 197.21 12.7695C198.044 13.2726 198.698 13.9621 199.172 14.8381C199.645 15.7081 199.879 16.7054 199.873 17.8299C199.879 19.0965 199.583 20.2151 198.985 21.1857C198.387 22.1504 197.559 22.9021 196.499 23.4407C195.446 23.9793 194.224 24.2486 192.833 24.2486ZM192.806 20.875C193.345 20.875 193.827 20.7478 194.253 20.4933C194.679 20.2388 195.014 19.8925 195.256 19.4545C195.499 19.0166 195.617 18.5224 195.612 17.9719C195.617 17.4156 195.499 16.9214 195.256 16.4893C195.02 16.0573 194.688 15.714 194.262 15.4595C193.842 15.205 193.36 15.0778 192.815 15.0778C192.418 15.0778 192.049 15.1518 191.705 15.2997C191.362 15.4477 191.063 15.6548 190.809 15.9212C190.56 16.1816 190.365 16.4893 190.223 16.8445C190.081 17.1937 190.007 17.5724 190.001 17.9808C190.007 18.5194 190.131 19.0077 190.374 19.4457C190.616 19.8836 190.948 20.2328 191.368 20.4933C191.788 20.7478 192.268 20.875 192.806 20.875Z" fill="#616161"/>
<path d="M117.334 73.884C111.564 75.8588 106.159 78.8488 101.491 82.8668C101.22 83.0994 100.967 83.3434 100.702 83.5798C102.738 88.4233 105.294 93.1404 108.402 97.6552C114.364 90.5878 117.344 82.2359 117.334 73.884Z" fill="#616161"/>
<path d="M181.467 107.273C167.144 105.35 151.992 109.13 140.957 118.627C139.191 120.147 137.598 121.761 136.171 123.447C146.986 129.996 159.004 134.418 171.454 136.715C179.372 128.198 182.711 117.57 181.467 107.273Z" fill="#616161"/>
<path d="M127.453 151.439C141.774 153.36 156.927 149.58 167.963 140.082C168.415 139.693 168.847 139.293 169.276 138.894C157.02 136.458 145.206 132.002 134.525 125.54C128.736 133.365 126.374 142.522 127.453 151.439Z" fill="#616161"/>
<path d="M106.479 99.778C103.289 95.2632 100.633 90.5524 98.4963 85.7064C91.3065 93.1771 87.7152 102.348 87.727 111.518C93.4936 109.543 98.9003 106.552 103.568 102.535C104.599 101.647 105.563 100.725 106.479 99.778Z" fill="#616161"/>
<path d="M108.11 102.023C107.324 102.807 106.509 103.58 105.645 104.323C100.425 108.815 94.3337 112.093 87.8416 114.182C88.5716 123.616 93.1146 132.871 101.491 140.081C101.531 140.116 101.575 140.149 101.616 140.185C104.687 130.281 109.834 120.76 117.08 112.133C113.763 108.915 110.768 105.537 108.11 102.023Z" fill="#616161"/>
<path d="M132.132 124.061C128.331 121.615 124.679 118.919 121.223 115.944C120.499 115.321 119.816 114.676 119.119 114.039C111.959 122.672 106.93 132.206 104.051 142.115C110.076 146.592 117.1 149.535 124.447 150.945C123.519 141.67 126.082 132.183 132.132 124.061Z" fill="#616161"/>
<path d="M120.891 111.975C121.685 112.707 122.472 113.442 123.302 114.157C126.624 117.017 130.136 119.61 133.789 121.97C135.306 120.175 137.001 118.458 138.881 116.84C150.381 106.941 166.091 102.886 181.048 104.658C179.488 96.7626 175.204 89.1895 168.18 83.064C154.051 86.9972 140.756 93.77 129.534 103.428C126.382 106.141 123.518 109.005 120.891 111.975Z" fill="#616161"/>
<path d="M110.069 99.9524C112.673 103.467 115.612 106.85 118.892 110.069C121.507 107.146 124.343 104.322 127.457 101.641C138.611 92.0392 151.753 85.1969 165.739 81.0879C152.978 71.4211 135.594 68.7231 120.245 72.9901C120.486 82.4812 117.094 92.0228 110.069 99.9524Z" fill="#616161"/>
</svg>
